<svg width="120" height="45" viewBox="0 0 120 45" fill="none" xmlns="http://www.w3.org/2000/svg">
<path d="M60.4378 43.099C60.2531 43.0032 60.1046 42.88 59.992 42.727C59.8791 42.5734 59.792 42.4082 59.7317 42.2287C59.6715 42.0499 59.6394 41.8625 59.6366 41.6693C59.6303 41.4526 59.6506 41.2507 59.6978 41.0638C59.7457 40.8766 59.8167 40.6976 59.91 40.5276C60.004 40.358 60.1301 40.2065 60.289 40.0753C60.448 39.9435 60.6275 39.8487 60.8278 39.7914C60.9075 39.7726 60.9979 39.7632 61.0996 39.7632H61.1999C61.2509 39.7632 61.2873 39.7647 61.31 39.7685C61.3319 39.7723 61.3561 39.7734 61.3818 39.7734C61.4827 39.7769 61.565 39.781 61.6271 39.7879C61.689 39.7942 61.7708 39.8146 61.8727 39.8498C61.9743 39.8841 62.0749 39.9356 62.1733 40.0025C62.3959 40.1553 62.5607 40.3473 62.6669 40.5792C62.7732 40.8112 62.8249 41.0513 62.8213 41.3008C62.8182 41.5501 62.7752 41.7897 62.6929 42.0186C62.6325 42.1833 62.5523 42.3399 62.4524 42.4881C62.3521 42.6353 62.2341 42.7695 62.0971 42.8886C61.9598 43.0073 61.8031 43.1005 61.6246 43.1674C61.4465 43.2344 61.2606 43.2637 61.067 43.2578C60.8321 43.2469 60.6225 43.1942 60.4378 43.099ZM61.661 42.3797C61.8373 42.2236 61.97 42.026 62.0591 41.7884C62.158 41.5211 62.1809 41.2802 62.1282 41.0638C62.0754 40.8476 61.9667 40.6826 61.8016 40.568C61.7601 40.54 61.7262 40.5186 61.6992 40.5036C61.6725 40.4891 61.6406 40.4764 61.6039 40.4631C61.5675 40.4507 61.5301 40.4428 61.4924 40.4397C61.4539 40.4361 61.4238 40.4344 61.4017 40.4344C61.3795 40.4344 61.3512 40.4333 61.3158 40.4298C61.2804 40.4267 61.2555 40.4229 61.2394 40.4178C61.2234 40.4127 61.1928 40.4104 61.1492 40.4104C61.1077 40.4048 61.0649 40.4089 61.0203 40.4252C60.7941 40.5077 60.6171 40.6564 60.4885 40.8708C60.3596 41.0857 60.2987 41.3439 60.3043 41.6456C60.3109 41.9162 60.384 42.1408 60.5236 42.3219C60.664 42.5039 60.8545 42.5971 61.096 42.6035C61.2965 42.6093 61.4852 42.535 61.661 42.3797Z" fill="#2D2C6E"/>
<path d="M65.5548 43.0799C65.3416 42.8293 65.0728 42.4571 64.7488 41.9649C64.396 41.4653 64.1471 41.1277 64.0004 40.9489C64.0035 41.0763 64.0114 41.3581 64.0243 41.795C64.0371 42.2327 64.044 42.5953 64.044 42.884C64.044 42.9767 64.0103 43.0552 63.9459 43.1211C63.8807 43.1858 63.8025 43.2184 63.7098 43.2184C63.6175 43.2184 63.5391 43.1848 63.4736 43.1211C63.4079 43.0552 63.3755 42.977 63.3755 42.884C63.3755 42.6045 63.3671 42.1528 63.3493 41.5282C63.332 40.9044 63.3294 40.4313 63.3424 40.11C63.3457 40.0186 63.3801 39.9404 63.4471 39.8765C63.5141 39.8131 63.5936 39.783 63.6858 39.7861C63.7306 39.7899 63.7734 39.7993 63.815 39.8144C63.8751 39.8335 63.9273 39.8683 63.9719 39.9188C64.0259 39.9862 64.1138 40.0919 64.2342 40.2355C64.3545 40.3809 64.4457 40.4894 64.5058 40.5627C64.6836 40.7473 64.9478 41.0864 65.2972 41.5827L65.526 41.9114C65.5359 41.174 65.5375 40.5752 65.5313 40.114C65.5313 40.0224 65.5632 39.9435 65.6264 39.8785C65.6903 39.8128 65.7682 39.7795 65.8605 39.7779C65.9522 39.7764 66.0311 39.807 66.0966 39.8704C66.1618 39.9343 66.1959 40.0125 66.199 40.1044C66.2018 40.5362 66.1972 41.4561 66.1842 42.8644C66.1809 42.9543 66.1488 43.0289 66.0887 43.0913C66.0286 43.1529 65.9537 43.187 65.8648 43.1937C65.7405 43.2161 65.6376 43.1784 65.5548 43.0799Z" fill="#2D2C6E"/>
<path d="M67.047 43.089C66.9835 43.0256 66.9502 42.9477 66.9471 42.8555C66.9435 42.5311 66.9374 42.0728 66.9277 41.4778L66.913 40.1385C66.913 40.0468 66.9453 39.9679 67.0087 39.9024C67.0722 39.837 67.1501 39.8039 67.2421 39.8019C67.3343 39.8003 67.413 39.8314 67.4785 39.8946C67.5432 39.9585 67.5778 40.0364 67.5801 40.128L67.5949 41.3775L67.6094 42.5788C67.7648 42.5788 67.9915 42.5772 68.2888 42.5734C68.5858 42.5709 68.8043 42.5683 68.9442 42.5683C69.0364 42.5683 69.1154 42.5991 69.1801 42.661C69.2455 42.7234 69.2781 42.7998 69.2781 42.8886C69.2781 42.9775 69.2455 43.0541 69.1801 43.1201C69.1149 43.1847 69.0361 43.2173 68.9442 43.2173C68.8395 43.2173 68.5674 43.2189 68.1293 43.2224C67.6873 43.2257 67.4133 43.2257 67.3088 43.2224C67.2016 43.2196 67.1137 43.1748 67.047 43.089Z" fill="#2D2C6E"/>
<path d="M69.6075 43.1354C69.5408 43.0725 69.5061 42.9956 69.5028 42.9039C69.5028 42.8217 69.5293 42.7478 69.5815 42.6819C69.6337 42.617 69.7002 42.5783 69.7792 42.5648C69.7825 42.0125 69.781 41.3113 69.7744 40.4631C69.6979 40.4474 69.634 40.4092 69.5833 40.3491C69.5326 40.2887 69.5069 40.2164 69.5069 40.1349C69.5069 40.0428 69.5403 39.9649 69.6072 39.9017C69.6742 39.8378 69.7535 39.8052 69.8462 39.8052L70.3842 39.8106C70.4769 39.8106 70.5546 39.8442 70.6183 39.9114C70.6817 39.9776 70.7135 40.057 70.7135 40.1495C70.7135 40.2286 70.6873 40.2989 70.6343 40.3587C70.5821 40.4188 70.5156 40.457 70.4367 40.4726C70.4463 41.3087 70.4494 42.001 70.4463 42.5515C70.5261 42.564 70.5915 42.5999 70.6445 42.6608C70.6967 42.7211 70.7245 42.7911 70.7278 42.8706C70.7278 42.9622 70.6967 43.0424 70.6343 43.1091C70.5727 43.1756 70.4952 43.2105 70.4035 43.214L69.8457 43.2286C69.754 43.2273 69.6748 43.1957 69.6075 43.1354Z" fill="#2D2C6E"/>
<path d="M73.5087 43.0799C73.2958 42.8293 73.027 42.4571 72.7028 41.9649C72.35 41.4653 72.1011 41.1277 71.9544 40.9489C71.9574 41.0763 71.9661 41.3581 71.9786 41.795C71.9916 42.2327 71.9974 42.5953 71.9974 42.884C71.9974 42.9767 71.9651 43.0552 71.8996 43.1211C71.8344 43.1858 71.7559 43.2184 71.6637 43.2184C71.5715 43.2184 71.4928 43.1848 71.4271 43.1211C71.3621 43.0552 71.3295 42.977 71.3295 42.884C71.3295 42.6045 71.3209 42.1528 71.3035 41.5282C71.2854 40.9044 71.2834 40.4313 71.2959 40.11C71.2997 40.0186 71.3338 39.9404 71.4014 39.8765C71.4678 39.8131 71.5473 39.783 71.6398 39.7861C71.6844 39.7899 71.7271 39.7993 71.7689 39.8144C71.829 39.8335 71.8815 39.8683 71.9258 39.9188C71.9798 39.9862 72.0675 40.0919 72.1877 40.2355C72.309 40.3809 72.3994 40.4894 72.46 40.5627C72.6378 40.7473 72.9017 41.0864 73.2509 41.5827L73.4799 41.9114C73.4899 41.174 73.4912 40.5752 73.485 40.114C73.485 40.0224 73.5169 39.9435 73.5803 39.8785C73.6437 39.8128 73.7222 39.7795 73.8136 39.7779C73.9059 39.7764 73.9851 39.807 74.05 39.8704C74.1155 39.9343 74.1494 40.0125 74.1527 40.1044C74.1557 40.5362 74.1509 41.4561 74.1382 42.8644C74.1351 42.9543 74.103 43.0289 74.0429 43.0913C73.9825 43.1529 73.9079 43.187 73.8187 43.1937C73.6947 43.2161 73.5915 43.1784 73.5087 43.0799Z" fill="#2D2C6E"/>
<path d="M75.2202 43.2037C75.1568 43.2037 75.099 43.1856 75.0462 43.1492C74.9935 43.112 74.9548 43.067 74.9291 43.013C74.8914 42.9559 74.8723 42.8938 74.8723 42.8274C74.8751 42.7161 74.8733 42.2685 74.8669 41.4827C74.8631 40.9106 74.8779 40.4609 74.9095 40.1343C74.913 40.093 74.9225 40.0543 74.938 40.0197C74.9637 39.9558 75.0032 39.9048 75.0575 39.8649C75.1117 39.8259 75.1734 39.8043 75.2437 39.8005C75.4757 39.7966 75.7888 39.7961 76.1831 39.7979C76.5772 39.7999 76.8905 39.7994 77.1226 39.7951C77.2143 39.7951 77.2932 39.8277 77.3584 39.8908C77.4237 39.9547 77.4565 40.0319 77.4565 40.1218C77.4565 40.2119 77.4252 40.2898 77.3638 40.3558C77.3014 40.4207 77.2245 40.4536 77.132 40.4536C76.9542 40.4536 76.6888 40.453 76.3362 40.451C75.9832 40.4495 75.7177 40.4505 75.5399 40.4536C75.5305 40.6473 75.5239 40.876 75.5211 41.1405C75.6731 41.1369 76.1436 41.1349 76.9323 41.1349C77.024 41.1349 77.1032 41.167 77.1682 41.2304C77.2336 41.2946 77.2662 41.3709 77.2662 41.4616C77.2662 41.552 77.2336 41.6307 77.1682 41.6956C77.1032 41.7605 77.0247 41.7928 76.9323 41.7928C76.1408 41.7928 75.6716 41.7944 75.5257 41.7982C75.532 42.1539 75.5336 42.4055 75.5307 42.5514C76.1752 42.5577 76.7147 42.5603 77.1475 42.5603C77.2392 42.5603 77.3174 42.5926 77.3806 42.6565C77.4448 42.7199 77.4761 42.7968 77.4761 42.8895C77.4761 42.9817 77.4443 43.0596 77.3806 43.123C77.3174 43.1866 77.2392 43.2187 77.1475 43.2187C76.6765 43.218 76.0344 43.2136 75.2202 43.2037Z" fill="#2D2C6E"/>
<path d="M79.7071 43.1409C79.5107 43.0595 79.3548 42.9383 79.2401 42.7791C79.1255 42.62 79.069 42.4359 79.069 42.2266C79.069 42.0993 79.1051 41.9992 79.178 41.9287C79.2516 41.8572 79.3334 41.821 79.4264 41.821C79.5186 41.821 79.5935 41.8538 79.6503 41.9193C79.7073 41.985 79.7364 42.056 79.7364 42.1362C79.7364 42.2159 79.7417 42.2813 79.7509 42.3338C79.7608 42.3863 79.7843 42.4344 79.8222 42.4794C79.8951 42.5678 80.0818 42.6121 80.3803 42.6121C80.5423 42.6121 80.6809 42.5787 80.7948 42.5113C80.9094 42.4448 80.9667 42.3496 80.9667 42.2261C80.9667 42.1433 80.9 42.0634 80.7665 41.9873C80.6745 41.9369 80.4692 41.8569 80.1516 41.7482C79.8049 41.6349 79.544 41.5012 79.369 41.3502C79.1938 41.2 79.1072 40.994 79.1072 40.7335C79.1072 40.5329 79.1647 40.358 79.2789 40.2087C79.3925 40.059 79.5433 39.9445 79.7297 39.8655C79.9157 39.7858 80.1139 39.7459 80.3235 39.7459C80.5395 39.7395 80.7476 39.7746 80.9481 39.85C81.1483 39.9269 81.3098 40.0356 81.4321 40.1772C81.5544 40.3185 81.6155 40.4786 81.6155 40.6566C81.6155 40.7519 81.5804 40.8333 81.5106 40.9021C81.4408 40.9706 81.3595 41.0044 81.2676 41.0044C81.2041 41.0044 81.142 40.9848 81.0816 40.9469C81.0212 40.9087 80.9828 40.8606 80.9672 40.8035C80.9484 40.7274 80.9204 40.6694 80.8837 40.6273C80.847 40.5861 80.7986 40.5482 80.7385 40.5128C80.659 40.4687 80.5872 40.4369 80.5242 40.418C80.4603 40.3989 80.3701 40.3898 80.2525 40.3898C80.1121 40.3898 79.9972 40.416 79.9068 40.4687C79.8158 40.5207 79.7705 40.5881 79.7705 40.6709C79.7705 40.776 79.8225 40.8613 79.9251 40.9283C80.0285 40.9953 80.1737 41.0587 80.3617 41.1188C80.7242 41.2397 80.9654 41.3334 81.0864 41.3999C81.2867 41.5114 81.4283 41.6285 81.5108 41.753C81.5928 41.8765 81.6346 42.0331 81.6346 42.22C81.6346 42.4204 81.5745 42.5989 81.4535 42.7567C81.3328 42.9136 81.1741 43.0363 80.9795 43.1241C80.7838 43.211 80.5811 43.2548 80.3709 43.2548C80.1256 43.2624 79.9047 43.2245 79.7071 43.1409Z" fill="#2D2C6E"/>
<path d="M82.7263 43.1154C82.6593 43.1803 82.5811 43.2137 82.4902 43.2137C82.4 43.2137 82.3221 43.1793 82.2566 43.1126C82.1911 43.0464 82.1588 42.9672 82.1588 42.8743C82.1618 42.6298 82.1588 42.1842 82.1489 41.5373C82.1397 40.8905 82.1376 40.4162 82.1438 40.1142C82.1473 40.0228 82.1817 39.9451 82.249 39.883C82.316 39.8219 82.3949 39.7913 82.4879 39.7926C82.5793 39.7941 82.6568 39.8283 82.7192 39.8947C82.7803 39.9617 82.8119 40.0414 82.8119 40.1333C82.8055 40.3747 82.8035 40.68 82.8068 41.0486C83.4584 41.0293 83.9526 41.0204 84.2896 41.0204C84.2896 40.6716 84.2914 40.3703 84.2945 40.1193C84.298 40.0279 84.3317 39.9497 84.3966 39.8858C84.4621 39.8232 84.5403 39.7916 84.6332 39.7934C84.7247 39.7949 84.8029 39.8285 84.8668 39.8937C84.93 39.9586 84.9621 40.0376 84.9621 40.1292C84.9585 40.3367 84.957 41.2546 84.957 42.8847C84.957 42.9774 84.9239 43.0553 84.8587 43.1212C84.7942 43.1859 84.7153 43.2185 84.6231 43.2185C84.5308 43.2185 84.4519 43.1854 84.3869 43.1212C84.3217 43.0553 84.2891 42.9776 84.2891 42.8847V41.6885C83.9585 41.6847 83.4668 41.6941 82.8155 41.7163C82.8224 42.238 82.8254 42.6263 82.8254 42.8837C82.8267 42.9731 82.7933 43.0512 82.7263 43.1154Z" fill="#2D2C6E"/>
<path d="M86.2743 43.099C86.0894 43.0032 85.9404 42.88 85.828 42.727C85.7155 42.5734 85.6288 42.4082 85.5685 42.2287C85.5078 42.0499 85.4758 41.8625 85.4732 41.6693C85.4663 41.4526 85.4872 41.2507 85.5346 41.0638C85.582 40.8766 85.6533 40.6976 85.747 40.5276C85.8405 40.358 85.9666 40.2065 86.1258 40.0753C86.285 39.9435 86.4646 39.8487 86.6648 39.7914C86.7441 39.7726 86.835 39.7632 86.9364 39.7632H87.0365C87.0872 39.7632 87.1239 39.7647 87.1463 39.7685C87.1684 39.7723 87.1924 39.7734 87.2176 39.7734C87.3192 39.7769 87.4013 39.781 87.4632 39.7879C87.5253 39.7942 87.6068 39.8146 87.7092 39.8498C87.8104 39.8841 87.9107 39.9356 88.0098 40.0025C88.2322 40.1553 88.397 40.3473 88.5038 40.5792C88.61 40.8112 88.6614 41.0513 88.6584 41.3008C88.6548 41.5501 88.6112 41.7897 88.529 42.0186C88.4691 42.1833 88.3886 42.3399 88.2888 42.4881C88.1881 42.6353 88.0699 42.7695 87.9332 42.8886C87.7964 43.0073 87.6387 43.1005 87.4609 43.1674C87.2831 43.2344 87.0969 43.2637 86.9033 43.2578C86.6687 43.2469 86.4588 43.1942 86.2743 43.099ZM87.4976 42.3797C87.6736 42.2236 87.8068 42.026 87.8957 41.7884C87.9948 41.5211 88.018 41.2802 87.965 41.0638C87.912 40.8476 87.8032 40.6826 87.6377 40.568C87.5969 40.54 87.5628 40.5186 87.5358 40.5036C87.5088 40.4891 87.4772 40.4764 87.4408 40.4631C87.4036 40.4507 87.3666 40.4428 87.3292 40.4397C87.291 40.4361 87.2604 40.4344 87.2385 40.4344C87.2158 40.4344 87.1876 40.4333 87.1521 40.4298C87.1175 40.4267 87.0923 40.4229 87.0757 40.4178C87.0599 40.4127 87.0301 40.4104 86.9856 40.4104C86.9443 40.4048 86.9007 40.4089 86.8569 40.4252C86.631 40.5077 86.4537 40.6564 86.3243 40.8708C86.1961 41.0857 86.1347 41.3439 86.1414 41.6456C86.1475 41.9162 86.2211 42.1408 86.3602 42.3219C86.5005 42.5039 86.6911 42.5971 86.9326 42.6035C87.1323 42.6093 87.3205 42.535 87.4976 42.3797Z" fill="#2D2C6E"/>
<path d="M89.753 43.1492C89.688 43.2142 89.6093 43.247 89.5168 43.247C89.4244 43.247 89.3459 43.2142 89.2804 43.1492C89.2152 43.0835 89.1831 43.0051 89.1831 42.9124C89.1831 42.8203 89.1793 42.3581 89.1729 41.5253C89.1671 40.6932 89.1684 40.231 89.1783 40.1386C89.1814 40.0469 89.216 39.9695 89.2827 39.9079C89.35 39.846 89.4289 39.8152 89.5217 39.8152C89.5377 39.8152 89.553 39.8163 89.5696 39.8201C89.5757 39.8201 89.5838 39.8183 89.5938 39.8152C89.9817 39.7513 90.2848 39.7256 90.5042 39.7389C90.9359 39.7671 91.2638 39.9184 91.4869 40.1911C91.6581 40.4011 91.746 40.6249 91.7483 40.863C91.7516 41.1018 91.6769 41.3022 91.5241 41.4639C91.4006 41.6001 91.2447 41.7068 91.0572 41.7832C90.8694 41.8596 90.6789 41.9026 90.4848 41.912C90.4211 41.9159 90.3523 41.9159 90.28 41.912C90.2061 41.909 90.1182 41.9026 90.0148 41.8932C89.9124 41.8835 89.8538 41.8772 89.8408 41.8738C89.8467 42.3538 89.8503 42.7001 89.8503 42.9127C89.8503 43.0049 89.8179 43.0835 89.753 43.1492ZM90.7895 41.1762C90.8949 41.1337 90.9729 41.0815 91.0236 41.0211C91.049 40.9929 91.0666 40.9661 91.076 40.9422C91.0855 40.918 91.0829 40.8729 91.0691 40.8067C91.0546 40.7398 91.022 40.6746 90.9713 40.6107C90.87 40.4869 90.6998 40.4187 90.4614 40.4057C90.3017 40.3963 90.0953 40.4105 89.8414 40.448C89.8378 40.6616 89.836 40.9137 89.836 41.2065H89.8414L90.0655 41.2304C90.1483 41.2365 90.2194 41.2419 90.2803 41.2444C90.3404 41.248 90.3995 41.248 90.456 41.2444C90.574 41.2421 90.6845 41.2185 90.7895 41.1762Z" fill="#2D2C6E"/>
<path d="M92.7379 43.1492C92.6729 43.2142 92.5942 43.247 92.5017 43.247C92.4098 43.247 92.3305 43.2142 92.2656 43.1492C92.2001 43.0835 92.1675 43.0051 92.1675 42.9124C92.1675 42.8203 92.1639 42.3581 92.1578 41.5253C92.1515 40.6932 92.1527 40.231 92.1629 40.1386C92.166 40.0469 92.2006 39.9695 92.2681 39.9079C92.3351 39.846 92.4143 39.8152 92.5063 39.8152C92.5223 39.8152 92.5386 39.8163 92.5539 39.8201C92.5608 39.8201 92.5685 39.8183 92.5779 39.8152C92.9661 39.7513 93.2695 39.7256 93.4885 39.7389C93.9208 39.7671 94.2484 39.9184 94.471 40.1911C94.6427 40.4011 94.7304 40.6249 94.7329 40.863C94.7365 41.1018 94.6616 41.3022 94.509 41.4639C94.3847 41.6001 94.2288 41.7068 94.0416 41.7832C93.8541 41.8596 93.6635 41.9026 93.4694 41.912C93.4055 41.9159 93.337 41.9159 93.2639 41.912C93.1908 41.909 93.1026 41.9026 92.9992 41.8932C92.896 41.8835 92.8382 41.8772 92.825 41.8738C92.8313 42.3538 92.8339 42.7001 92.8339 42.9127C92.8354 43.0049 92.8031 43.0835 92.7379 43.1492ZM93.7749 41.1762C93.8801 41.1337 93.958 41.0815 94.0087 41.0211C94.0349 40.9929 94.0515 40.9661 94.0612 40.9422C94.0709 40.918 94.0681 40.8729 94.0543 40.8067C94.0403 40.7398 94.0074 40.6746 93.9567 40.6107C93.8551 40.4869 93.6849 40.4187 93.447 40.4057C93.2873 40.3963 93.0807 40.4105 92.8262 40.448C92.8229 40.6616 92.8214 40.9137 92.8214 41.2065H92.8262L93.0507 41.2304C93.1329 41.2365 93.2048 41.2419 93.2651 41.2444C93.3253 41.248 93.3846 41.248 93.4409 41.2444C93.5591 41.2421 93.6699 41.2185 93.7749 41.1762Z" fill="#2D2C6E"/>
<path d="M95.0864 43.1354C95.0194 43.0725 94.9848 42.9956 94.9812 42.9039C94.9812 42.8217 95.0077 42.7478 95.0604 42.6819C95.1134 42.617 95.1789 42.5783 95.2589 42.5648C95.2619 42.0125 95.2599 41.3113 95.2535 40.4631C95.1779 40.4474 95.1137 40.4092 95.063 40.3491C95.0123 40.2887 94.9863 40.2164 94.9863 40.1349C94.9863 40.0428 95.0197 39.9649 95.0867 39.9017C95.1542 39.8378 95.2329 39.8052 95.3253 39.8052L95.8639 39.8106C95.9566 39.8106 96.034 39.8442 96.0979 39.9114C96.1616 39.9776 96.1932 40.057 96.1932 40.1495C96.1932 40.2286 96.1667 40.2989 96.114 40.3587C96.0613 40.4188 95.996 40.457 95.9166 40.4726C95.9257 41.3087 95.9293 42.001 95.9257 42.5515C96.005 42.564 96.0712 42.5999 96.1237 42.6608C96.1759 42.7211 96.2039 42.7911 96.207 42.8706C96.207 42.9622 96.1759 43.0424 96.114 43.1091C96.0518 43.1756 95.9744 43.2105 95.8827 43.214L95.3248 43.2286C95.2326 43.2273 95.1526 43.1957 95.0864 43.1354Z" fill="#2D2C6E"/>
<path d="M98.9869 43.0799C98.7737 42.8293 98.5047 42.4571 98.1809 41.9649C97.8274 41.4653 97.5788 41.1277 97.432 40.9489C97.4353 41.0763 97.443 41.3581 97.456 41.795C97.4692 42.2327 97.4753 42.5953 97.4753 42.884C97.4753 42.9767 97.4425 43.0552 97.3775 43.1211C97.3121 43.1858 97.2338 43.2184 97.1409 43.2184C97.0492 43.2184 96.9702 43.1848 96.9058 43.1211C96.8395 43.0552 96.8074 42.977 96.8074 42.884C96.8074 42.6045 96.7988 42.1528 96.7809 41.5282C96.7636 40.9044 96.7616 40.4313 96.7743 40.11C96.7776 40.0186 96.8123 39.9404 96.8787 39.8765C96.9463 39.8131 97.025 39.783 97.1177 39.7861C97.1615 39.7899 97.2051 39.7993 97.2466 39.8144C97.3062 39.8335 97.3592 39.8683 97.4035 39.9188C97.4578 39.9862 97.5454 40.0919 97.6661 40.2355C97.7861 40.3809 97.8771 40.4894 97.9377 40.5627C98.1155 40.7473 98.3794 41.0864 98.7289 41.5827L98.9579 41.9114C98.9671 41.174 98.9688 40.5752 98.9632 40.114C98.9632 40.0224 98.9943 39.9435 99.058 39.8785C99.1214 39.8128 99.1999 39.7795 99.2921 39.7779C99.3838 39.7764 99.4628 39.807 99.5282 39.8704C99.5932 39.9343 99.6278 40.0125 99.6301 40.1044C99.6334 40.5362 99.6288 41.4561 99.6161 42.8644C99.6123 42.9543 99.581 43.0289 99.5208 43.0913C99.4602 43.1529 99.3858 43.187 99.2964 43.1937C99.1736 43.2161 99.0697 43.1784 98.9869 43.0799Z" fill="#2D2C6E"/>
<path d="M102.458 43.0822C102.259 43.1764 102.057 43.2225 101.853 43.221C101.649 43.2187 101.449 43.1835 101.252 43.1135C101.055 43.044 100.876 42.9371 100.714 42.7945C100.552 42.6511 100.422 42.4856 100.327 42.2982C100.206 42.0663 100.145 41.8244 100.142 41.5716C100.138 41.3192 100.182 41.0875 100.275 40.878C100.364 40.6651 100.491 40.4762 100.656 40.3104C100.824 40.1388 101.012 40.0084 101.219 39.9204C101.428 39.8282 101.66 39.7867 101.914 39.7966C102.169 39.8055 102.414 39.8804 102.649 40.0207C102.713 40.0525 102.769 40.0881 102.818 40.1274C102.868 40.1673 102.914 40.2111 102.959 40.2592C103.004 40.3061 103.037 40.344 103.06 40.3708C103.082 40.3978 103.115 40.4416 103.16 40.5019C103.205 40.5622 103.233 40.6007 103.246 40.6165C103.3 40.689 103.32 40.7708 103.308 40.8619C103.295 40.9523 103.252 41.0251 103.179 41.0786C103.106 41.1328 103.025 41.1535 102.936 41.141C102.848 41.1283 102.774 41.085 102.717 41.0116L102.622 40.8879L102.545 40.7835C102.532 40.7642 102.512 40.7402 102.486 40.7117C102.459 40.684 102.433 40.6605 102.409 40.6427C102.385 40.6249 102.356 40.6055 102.32 40.5836C102.098 40.4688 101.883 40.4298 101.676 40.4663C101.47 40.5029 101.287 40.604 101.129 40.769C100.963 40.934 100.86 41.1255 100.818 41.3432C100.777 41.5611 100.807 41.778 100.909 41.9947C101.013 42.2012 101.163 42.3537 101.36 42.4515C101.555 42.5506 101.756 42.5814 101.963 42.545C102.17 42.5083 102.341 42.4067 102.478 42.2422C102.541 42.1689 102.578 42.1101 102.587 42.0663C102.594 42.0441 102.599 42.0232 102.602 42.0039C102.51 42.0008 102.335 42.0059 102.077 42.0189C101.985 42.0222 101.905 41.9935 101.838 41.9326C101.772 41.8725 101.737 41.7964 101.733 41.7042C101.73 41.6118 101.759 41.5331 101.819 41.4661C101.88 41.3992 101.956 41.3645 102.048 41.361C102.306 41.3521 102.596 41.347 102.92 41.347C103.013 41.347 103.093 41.3803 103.159 41.4468C103.229 41.5138 103.262 41.5965 103.26 41.6948V41.8053C103.263 41.8809 103.262 41.9568 103.257 42.0311C103.252 42.106 103.244 42.1722 103.231 42.2292C103.193 42.3728 103.112 42.5185 102.987 42.6677C102.836 42.8492 102.659 42.9885 102.458 43.0822Z" fill="#2D2C6E"/>
<path d="M105.591 43.1409C105.394 43.0595 105.239 42.9383 105.124 42.7791C105.01 42.62 104.953 42.4359 104.953 42.2266C104.953 42.0993 104.989 41.9992 105.062 41.9287C105.136 41.8572 105.218 41.821 105.31 41.821C105.402 41.821 105.478 41.8538 105.535 41.9193C105.592 41.985 105.62 42.056 105.62 42.1362C105.62 42.2159 105.626 42.2813 105.635 42.3338C105.644 42.3863 105.668 42.4344 105.706 42.4794C105.779 42.5678 105.966 42.6121 106.264 42.6121C106.426 42.6121 106.565 42.5787 106.679 42.5113C106.793 42.4448 106.851 42.3496 106.851 42.2261C106.851 42.1433 106.784 42.0634 106.651 41.9873C106.558 41.9369 106.354 41.8569 106.036 41.7482C105.689 41.6349 105.428 41.5012 105.253 41.3502C105.078 41.2 104.991 40.994 104.991 40.7335C104.991 40.5329 105.049 40.358 105.163 40.2087C105.278 40.059 105.428 39.9445 105.614 39.8655C105.8 39.7858 105.998 39.7459 106.208 39.7459C106.424 39.7395 106.632 39.7746 106.833 39.85C107.033 39.9269 107.194 40.0356 107.316 40.1772C107.439 40.3185 107.5 40.4786 107.5 40.6566C107.5 40.7519 107.464 40.8333 107.395 40.9021C107.326 40.9706 107.244 41.0044 107.152 41.0044C107.089 41.0044 107.026 40.9848 106.966 40.9469C106.906 40.9087 106.867 40.8606 106.852 40.8035C106.833 40.7274 106.805 40.6694 106.768 40.6273C106.732 40.5861 106.684 40.5482 106.624 40.5128C106.544 40.4687 106.472 40.4369 106.409 40.418C106.345 40.3989 106.255 40.3898 106.137 40.3898C105.998 40.3898 105.882 40.416 105.792 40.4687C105.701 40.5207 105.655 40.5881 105.655 40.6709C105.655 40.776 105.708 40.8613 105.81 40.9283C105.914 40.9953 106.06 41.0587 106.247 41.1188C106.61 41.2397 106.851 41.3334 106.972 41.3999C107.172 41.5114 107.313 41.6285 107.396 41.753C107.479 41.8765 107.52 42.0331 107.52 42.22C107.52 42.4204 107.46 42.5989 107.339 42.7567C107.218 42.9136 107.059 43.0363 106.865 43.1241C106.668 43.211 106.466 43.2548 106.256 43.2548C106.01 43.2624 105.789 43.2245 105.591 43.1409Z" fill="#2D2C6E"/>
<path d="M109.194 43.1179C109.129 43.1823 109.05 43.2121 108.958 43.2106C108.866 43.2096 108.788 43.176 108.724 43.1105C108.661 43.0458 108.629 42.9672 108.629 42.8742C108.632 42.7757 108.631 42.3265 108.624 41.5253C108.621 41.0962 108.627 40.7377 108.643 40.4485C108.389 40.4485 108.174 40.4505 108 40.4536C107.907 40.4536 107.829 40.4217 107.764 40.3583C107.698 40.2944 107.664 40.2165 107.663 40.1249C107.662 40.0329 107.692 39.9538 107.756 39.8883C107.82 39.8236 107.897 39.7895 107.989 39.7862C108.19 39.7826 108.519 39.7809 108.977 39.7796C109.434 39.7786 109.763 39.7776 109.963 39.7776C110.055 39.7776 110.135 39.8089 110.202 39.8723C110.269 39.9362 110.303 40.0136 110.304 40.104C110.305 40.1941 110.275 40.2741 110.211 40.3423C110.147 40.411 110.071 40.4447 109.983 40.4447C109.782 40.4447 109.558 40.4464 109.31 40.45C109.294 40.727 109.287 41.0838 109.291 41.5225C109.297 42.3327 109.299 42.7866 109.295 42.8857C109.293 42.9766 109.259 43.0548 109.194 43.1179Z" fill="#2D2C6E"/>
<path d="M111.161 43.099C110.976 43.0032 110.827 42.88 110.714 42.727C110.602 42.5734 110.515 42.4082 110.455 42.2287C110.395 42.0499 110.363 41.8625 110.359 41.6693C110.354 41.4526 110.374 41.2507 110.421 41.0638C110.469 40.8766 110.539 40.6976 110.633 40.5276C110.728 40.358 110.853 40.2065 111.013 40.0753C111.172 39.9435 111.351 39.8487 111.551 39.7914C111.631 39.7726 111.721 39.7632 111.823 39.7632H111.923C111.974 39.7632 112.011 39.7647 112.033 39.7685C112.056 39.7723 112.08 39.7734 112.104 39.7734C112.206 39.7769 112.289 39.781 112.35 39.7879C112.412 39.7942 112.494 39.8146 112.595 39.8498C112.698 39.8841 112.798 39.9356 112.896 40.0025C113.12 40.1553 113.284 40.3473 113.39 40.5792C113.496 40.8112 113.549 41.0513 113.545 41.3008C113.542 41.5501 113.498 41.7897 113.416 42.0186C113.356 42.1833 113.275 42.3399 113.175 42.4881C113.074 42.6353 112.956 42.7695 112.82 42.8886C112.684 43.0073 112.526 43.1005 112.348 43.1674C112.17 43.2344 111.983 43.2637 111.79 43.2578C111.555 43.2469 111.345 43.1942 111.161 43.099ZM112.384 42.3797C112.56 42.2236 112.693 42.026 112.782 41.7884C112.881 41.5211 112.904 41.2802 112.851 41.0638C112.799 40.8476 112.69 40.6826 112.525 40.568C112.484 40.54 112.449 40.5186 112.422 40.5036C112.396 40.4891 112.364 40.4764 112.327 40.4631C112.29 40.4507 112.253 40.4428 112.216 40.4397C112.177 40.4361 112.147 40.4344 112.125 40.4344C112.102 40.4344 112.073 40.4333 112.038 40.4298C112.003 40.4267 111.979 40.4229 111.962 40.4178C111.946 40.4127 111.916 40.4104 111.872 40.4104C111.83 40.4048 111.788 40.4089 111.743 40.4252C111.517 40.5077 111.341 40.6564 111.211 40.8708C111.083 41.0857 111.021 41.3439 111.028 41.6456C111.034 41.9162 111.108 42.1408 111.247 42.3219C111.387 42.5039 111.578 42.5971 111.82 42.6035C112.019 42.6093 112.207 42.535 112.384 42.3797Z" fill="#2D2C6E"/>
<path d="M115.944 42.2212C115.886 42.0783 115.822 41.9737 115.748 41.9072C115.669 41.8344 115.554 41.7878 115.405 41.769C115.369 41.7723 115.322 41.7746 115.262 41.7756C115.201 41.7774 115.169 41.7784 115.166 41.7784C115.043 41.7815 114.947 41.7845 114.88 41.7878H114.737C114.741 42.2197 114.742 42.5855 114.742 42.884C114.742 42.9764 114.709 43.0546 114.644 43.1205C114.579 43.1847 114.5 43.2178 114.408 43.2178C114.316 43.2178 114.237 43.1847 114.171 43.1205C114.106 43.0546 114.074 42.9766 114.074 42.884C114.074 42.5252 114.071 42.048 114.064 41.454C114.058 40.8595 114.055 40.4149 114.055 40.1193C114.055 40.0271 114.087 39.9482 114.153 39.8833C114.218 39.8186 114.296 39.786 114.389 39.786H114.412C114.867 39.7282 115.29 39.73 115.681 39.7906C115.983 39.8351 116.221 39.9189 116.396 40.0434C116.66 40.2275 116.785 40.4753 116.768 40.7872C116.75 41.092 116.591 41.3338 116.292 41.5111C116.405 41.6447 116.498 41.8044 116.569 41.991C116.638 42.1766 116.709 42.4458 116.783 42.7987C116.805 42.8875 116.793 42.9723 116.746 43.0515C116.698 43.1312 116.629 43.1821 116.54 43.2038C116.451 43.2262 116.367 43.2137 116.287 43.1658C116.208 43.118 116.157 43.0497 116.134 42.9609C116.062 42.6334 115.998 42.3872 115.944 42.2212ZM114.742 41.1205C115.006 41.0892 115.232 41.083 115.419 41.1019C115.445 41.0981 115.467 41.0955 115.487 41.0925C115.673 41.0606 115.825 41.0125 115.939 40.9491C116.044 40.889 116.098 40.8221 116.101 40.7492C116.107 40.6853 116.08 40.6329 116.02 40.5919C115.925 40.5247 115.777 40.4773 115.578 40.4485C115.336 40.4111 115.051 40.4024 114.723 40.4248C114.723 40.6191 114.725 40.8503 114.729 41.1207H114.742V41.1205Z" fill="#2D2C6E"/>
<path d="M117.675 43.2037C117.611 43.2037 117.553 43.1856 117.501 43.1492C117.448 43.112 117.41 43.067 117.384 43.013C117.346 42.9559 117.326 42.8938 117.326 42.8274C117.33 42.7161 117.328 42.2685 117.321 41.4827C117.318 40.9106 117.333 40.4609 117.364 40.1343C117.368 40.093 117.378 40.0543 117.392 40.0197C117.418 39.9558 117.458 39.9048 117.512 39.8649C117.566 39.8259 117.628 39.8043 117.698 39.8005C117.93 39.7966 118.243 39.7961 118.637 39.7979C119.031 39.7999 119.345 39.7994 119.577 39.7951C119.669 39.7951 119.748 39.8277 119.813 39.8908C119.879 39.9547 119.911 40.0319 119.911 40.1218C119.911 40.2119 119.88 40.2898 119.818 40.3558C119.756 40.4207 119.678 40.4536 119.587 40.4536C119.408 40.4536 119.144 40.453 118.79 40.451C118.437 40.4495 118.172 40.4505 117.995 40.4536C117.984 40.6473 117.978 40.876 117.975 41.1405C118.128 41.1369 118.598 41.1349 119.386 41.1349C119.478 41.1349 119.557 41.167 119.622 41.2304C119.688 41.2946 119.721 41.3709 119.721 41.4616C119.721 41.552 119.688 41.6307 119.622 41.6956C119.557 41.7605 119.478 41.7928 119.386 41.7928C118.595 41.7928 118.126 41.7944 117.98 41.7982C117.986 42.1539 117.987 42.4055 117.985 42.5514C118.63 42.5577 119.169 42.5603 119.601 42.5603C119.694 42.5603 119.772 42.5926 119.835 42.6565C119.898 42.7199 119.931 42.7968 119.931 42.8895C119.931 42.9817 119.898 43.0596 119.835 43.123C119.772 43.1866 119.694 43.2187 119.601 43.2187C119.13 43.218 118.489 43.2136 117.675 43.2037Z" fill="#2D2C6E"/>
<path d="M35.5365 21.3989C35.0535 23.5426 34.2091 25.6323 33.0025 27.6676C31.7955 29.7047 30.3736 31.5255 28.7383 33.1333C27.1016 34.7403 25.319 36.0267 23.3881 36.9909C21.4573 37.9556 19.5794 38.4101 17.7563 38.3577C15.128 38.2495 12.9821 37.3924 11.32 35.7854C9.65711 34.1776 8.63742 31.982 8.26297 29.1955C7.83298 29.1955 7.43076 29.223 7.05605 29.2757C6.68007 29.3296 6.27785 29.3029 5.84939 29.1955C4.72297 29.1423 3.73003 28.9013 2.87261 28.4718C2.12089 28.0977 1.4507 27.5351 0.861248 26.7838C0.2718 26.0342 0.0300606 24.9628 0.137048 23.5691C0.191051 22.926 0.378278 22.3633 0.700003 21.8811C0.96798 21.4528 1.3702 21.0912 1.90692 20.796C2.44262 20.5021 3.19433 20.408 4.15951 20.5146C3.94477 21.3185 3.91828 22.0694 4.07927 22.7649C4.186 23.355 4.46722 23.9307 4.9237 24.4933C5.3789 25.056 6.1431 25.3908 7.21653 25.4977H8.10172C8.15471 25.1231 8.20871 24.7078 8.26271 24.2518C8.31544 23.7978 8.3697 23.3276 8.42345 22.8458C8.7979 20.5952 9.42913 18.4251 10.3141 16.3356C11.199 14.2461 12.2172 12.3044 13.3711 10.5088C14.5245 8.71377 15.7714 7.12024 17.1128 5.72622C18.4527 4.33322 19.7676 3.23439 21.0551 2.43076C22.0202 1.8419 23.0386 1.34567 24.1121 0.943853C25.1848 0.542035 26.2707 0.32853 27.3706 0.301301C28.4693 0.274835 29.5427 0.43541 30.5886 0.783278C31.6343 1.13242 32.586 1.76148 33.4444 2.672C34.3018 3.52984 34.8388 4.74903 35.0535 6.32933C35.2673 7.91013 35.1065 9.66424 34.5708 11.5934C34.6238 11.6476 34.7986 11.8219 35.0938 12.1161C35.388 12.411 35.6432 12.9197 35.858 13.643C36.0717 14.3664 36.1797 15.3586 36.1797 16.6168C36.18 17.8762 35.965 19.4697 35.5365 21.3989ZM3.83804 21.0772L2.71187 21.2378C2.49688 21.292 2.28188 21.3724 2.06816 21.4793C1.69218 21.6399 1.31645 21.989 0.941743 22.5237C0.56576 23.3815 0.56576 24.346 0.941743 25.4173L1.18297 25.3369C1.07497 24.748 1.04873 24.2518 1.10273 23.85C1.15546 23.4484 1.30397 23.0339 1.5452 22.6043C1.78643 22.1761 2.20139 21.8282 2.79236 21.5595L3.83804 21.0772ZM8.10198 27.7478C9.38914 27.7478 10.8638 27.5473 12.5269 27.1455C14.1888 26.7431 16.0391 26.0879 18.078 25.1763L18.5607 24.9351C18.6675 24.8829 18.748 24.8549 18.802 24.8549L18.5607 24.5333C18.4 24.6943 18.2112 24.8282 17.9978 24.9351C17.1391 25.3109 15.7852 25.7929 13.9348 26.3823C12.0844 26.9722 10.2201 27.2661 8.34321 27.2661C7.48451 27.2661 6.72032 27.1999 6.05038 27.0653C5.37916 26.932 4.7757 26.6772 4.24026 26.3019L3.51606 25.8998L4.07952 26.5429C4.29299 26.7579 4.58847 26.9724 4.9642 27.1857C5.28618 27.3462 5.70088 27.4809 6.21137 27.5877C6.72057 27.6956 7.35027 27.7478 8.10198 27.7478ZM7.21704 26.7037C7.32403 26.7576 7.45853 26.8113 7.61926 26.8643C7.78025 26.9182 8.18247 26.9447 8.82618 26.9447C10.0593 26.9447 11.5615 26.6508 13.3316 26.0601V25.8194C13.2776 25.8194 12.7144 25.9398 11.642 26.1805C10.5685 26.422 9.49638 26.5426 8.42396 26.5426C8.20922 26.5426 8.00798 26.5299 7.82025 26.5029C7.632 26.4762 7.45853 26.4627 7.29754 26.4627L7.21704 26.7037ZM12.6074 35.9463C12.1774 35.5704 11.749 35.1146 11.32 34.5797C10.944 34.1514 10.5683 33.615 10.1938 32.9727C9.8181 32.3299 9.52287 31.5797 9.3089 30.7221H9.06767C9.28138 31.5797 9.52287 32.3029 9.79161 32.892C10.0593 33.4822 10.4073 34.0975 10.8375 34.7403C11.2662 35.3834 11.8295 35.8921 12.5272 36.2677L12.6074 35.9463ZM20.2504 5.32415C18.802 6.61001 17.555 7.88341 16.5094 9.1418C15.4635 10.4012 14.3498 12.0087 13.1706 13.9641C11.9902 15.9205 10.9708 18.2373 10.1136 20.9161L10.3551 20.9966C11.2125 19.0147 12.0445 17.2593 12.8491 15.732C13.6536 14.2051 14.6858 12.5449 15.9464 10.7491C17.2061 8.95425 18.6945 7.22661 20.4116 5.56463L20.2504 5.32415ZM30.1462 6.53011C29.6097 6.04737 28.9922 5.69975 28.2958 5.48498C27.7053 5.3244 26.9406 5.27173 26.003 5.3244C25.064 5.37835 24.0041 5.78042 22.8252 6.53036C21.6985 7.22712 20.6126 8.0847 19.5669 9.10184C18.521 10.1203 17.5556 11.2191 16.6706 12.3973C15.7854 13.5763 14.981 14.7683 14.2568 15.9737C13.5328 17.1794 12.9016 18.3447 12.3664 19.47C11.9904 20.2209 11.6422 21.1174 11.3205 22.1626C10.9988 23.2069 10.784 24.2661 10.6771 25.3372C12.8756 25.0158 15.2087 24.2661 17.6763 23.0868C20.1431 21.9089 22.3954 20.4624 24.4346 18.7467C25.1853 18.051 25.909 17.3805 26.6067 16.7374C27.1961 16.1488 27.7858 15.5459 28.3768 14.9291C28.966 14.3138 29.4225 13.7371 29.7444 13.2009C30.1192 12.7187 30.4284 12.1698 30.6699 11.5535C30.9111 10.9381 31.0583 10.3076 31.1123 9.66449C31.1651 9.02194 31.1123 8.41908 30.9514 7.85644C30.7899 7.29354 30.5209 6.85126 30.1462 6.53011ZM25.0778 23.4886C23.9513 24.2923 22.6642 25.043 21.2158 25.7387C19.9814 26.3291 18.4805 26.9447 16.7106 27.5877C14.9405 28.2305 12.9554 28.6861 10.7568 28.9535C10.918 30.2938 11.3062 31.4591 11.9235 32.4503C12.5394 33.442 13.4646 34.071 14.699 34.3387C16.0391 34.7143 17.4068 34.7945 18.802 34.5797C19.9814 34.366 21.2685 33.8697 22.6639 33.0926C24.0581 32.3172 25.3717 30.9629 26.6059 29.0342C28.483 26.195 29.7699 23.7434 30.4679 21.6803C31.1643 19.6181 31.594 18.0772 31.755 17.0588C31.0033 18.1841 30.0657 19.2964 28.9392 20.3945C27.8128 21.493 26.5257 22.5237 25.0778 23.4886ZM15.7449 37.2321L14.6993 36.6697C14.6993 36.6153 14.3233 36.3343 13.5728 35.8254C12.8211 35.3157 12.0707 34.6072 11.32 33.6957L11.0788 33.8565C11.4005 34.3927 11.7222 34.8337 12.0442 35.1828C12.3662 35.531 12.7406 35.8661 13.1706 36.1875C13.5991 36.5086 14.082 36.7501 14.6188 36.9107L15.7449 37.2321ZM23.7099 35.7055C23.7628 35.7055 23.7901 35.691 23.7901 35.6651C23.7901 35.6373 23.8166 35.6249 23.8706 35.6249L23.9511 35.5447L23.7901 35.3035C23.7364 35.3035 23.6959 35.3159 23.6694 35.3437C23.6418 35.3701 23.6016 35.3836 23.5486 35.3836C23.2269 35.5971 22.6237 35.8661 21.7385 36.1875C20.8536 36.5086 19.7676 36.67 18.4802 36.67C17.9435 36.67 17.541 36.6423 17.2733 36.5896L16.2276 36.5089L17.1928 36.911C17.2998 36.9637 17.4608 37.0179 17.6755 37.0718C17.8893 37.1242 18.2917 37.1522 18.8825 37.1522C19.4184 37.1522 20.0891 37.0581 20.8938 36.871C21.6983 36.6822 22.6362 36.2939 23.7099 35.7055ZM18.1588 26.1408C18.2655 26.0879 18.36 26.0604 18.4405 26.0604C18.5207 26.0604 18.6415 26.0077 18.8022 25.8995C19.3379 25.686 20.1024 25.3369 21.0953 24.8549C22.0872 24.3727 23.1469 23.6772 24.2733 22.7652L24.1926 22.5239C23.3339 23.0604 22.6099 23.5026 22.0202 23.85C21.4298 24.1994 20.8261 24.561 20.2104 24.9351C19.5929 25.3109 19.0964 25.5781 18.722 25.7387C18.561 25.7929 18.4002 25.8194 18.239 25.8194H18.0783L18.1588 26.1408ZM24.4341 4.03828C23.7904 4.14618 23.1869 4.34721 22.6239 4.64113C22.0607 4.93607 21.578 5.25773 21.1758 5.6056C20.7736 5.95474 20.3311 6.39676 19.8481 6.93167L20.0091 7.17291C20.4378 6.74463 20.8941 6.35656 21.377 6.00767C21.8595 5.65955 22.3425 5.35163 22.8252 5.08316C23.3606 4.81596 23.9238 4.548 24.5146 4.27952L24.4341 4.03828ZM21.6983 35.5444C22.8777 35.1688 23.9513 34.6604 24.9165 34.0171C25.8822 33.3743 26.7394 32.651 27.4913 31.8472C28.2418 31.0438 28.8992 30.1994 29.4622 29.3156C30.0252 28.4313 30.5209 27.5877 30.9506 26.7838C31.3793 25.9273 31.7678 25.0959 32.1173 24.2925C32.4655 23.4889 32.747 22.7926 32.962 22.203C33.1754 21.507 33.3642 20.8362 33.5252 20.1937L33.2837 20.113C32.3182 23.2751 31.1781 25.8331 29.8644 27.7888C28.5492 29.7452 27.3026 31.2723 26.1232 32.3699C24.943 33.4687 23.9108 34.2184 23.0259 34.6207C22.1407 35.0225 21.6707 35.2233 21.618 35.2233V35.3839V35.2233V35.3839V35.2233L21.6983 35.5444ZM31.5943 22.6043C31.3253 23.1945 31.0311 23.8375 30.7094 24.533C30.3876 25.23 30.0657 25.8733 29.7437 26.4624C29.3679 27.1589 28.992 27.8824 28.6175 28.6321L28.7785 28.7929C29.1527 28.3104 29.5287 27.7353 29.9047 27.0648C30.2791 26.3955 30.6011 25.7385 30.8701 25.0957C31.1378 24.4528 31.3653 23.9042 31.5538 23.4482C31.741 22.9937 31.8353 22.7387 31.8353 22.6845L31.5943 22.6043ZM33.4444 11.1913C33.1229 12.1563 32.7067 13.0801 32.1975 13.9644C31.687 14.8484 31.1781 15.6256 30.6689 16.2949C30.1584 16.9657 29.5284 17.7293 28.7782 18.5857L28.939 18.7462C29.8504 17.8897 30.6146 17.0321 31.2318 16.1745C31.8478 15.3179 32.3442 14.5143 32.7205 13.7631C33.1489 12.9068 33.4971 12.0751 33.7661 11.2715L33.4444 11.1913ZM29.1005 3.47563C30.8164 3.79729 31.9425 4.60093 32.4792 5.88679C32.9619 6.85126 33.1092 7.89614 32.922 9.02143C32.7335 10.1467 32.5057 11.058 32.2378 11.754C32.0768 11.9685 31.9423 12.2637 31.8353 12.6383L32.0768 12.7185C32.0768 12.6655 32.1033 12.5851 32.1573 12.4772C32.264 12.2637 32.3445 12.0492 32.3987 11.8344C33.6859 9.04891 33.8194 6.87874 32.8012 5.32415C32.5322 4.78924 32.1837 4.37343 31.7553 4.07849C31.3256 3.78431 30.9231 3.55579 30.5486 3.39497C30.1729 3.23414 29.6902 3.1013 29.1007 2.99315V3.47563H29.1005ZM34.0884 12.7986L34.4906 13.8435C34.8126 14.5408 34.9998 15.3177 35.0535 16.1745C35.1065 17.0321 35.0798 17.8357 34.9731 18.5857C34.8648 19.4972 34.7321 20.3815 34.5708 21.2375L34.8123 21.3986C35.1868 20.0056 35.4018 18.8266 35.4558 17.8622C35.5085 16.8977 35.482 16.1078 35.3755 15.4912C35.2673 14.8759 35.0258 14.273 34.6513 13.6827L34.0884 12.7986Z" fill="#95AE3C"/>
<path d="M50.8218 27.5873C50.9288 27.6412 51.0496 27.788 51.1838 28.0293C51.317 28.2703 51.1438 28.6856 50.6609 29.2752C49.7484 30.3997 48.837 31.3784 47.9258 32.2083C47.0131 33.0399 46.4234 33.5886 46.1554 33.856C45.404 34.3922 44.7743 34.6999 44.2651 34.7803C43.7543 34.8607 43.3661 34.8737 43.0984 34.8207C42.6154 34.8207 42.2259 34.6871 41.9317 34.4187C41.6362 34.1512 41.4213 33.8033 41.2885 33.374C41.1538 32.946 41.0876 32.504 41.0876 32.048C41.0876 31.5932 41.1135 31.1515 41.1678 30.7219C41.1678 30.615 41.1943 30.4539 41.2483 30.2394C41.301 30.0259 41.355 29.8111 41.4088 29.5969C41.4618 29.3831 41.5155 29.1683 41.5698 28.9533V29.034C41.8375 28.0171 42.213 26.8778 42.6962 25.6181C43.1789 24.36 43.8488 22.9255 44.7075 21.3182C44.7603 21.1047 44.8683 20.89 45.029 20.6752C45.136 20.4619 45.2707 20.2329 45.4315 19.9922C45.5925 19.7507 45.7535 19.4972 45.9145 19.2282C45.3777 19.3364 44.8683 19.4168 44.3858 19.4695C43.9031 19.5234 43.4466 19.5776 43.0182 19.6301C42.7492 19.6843 42.5079 19.7102 42.2942 19.7102C42.079 19.7102 41.8377 19.7382 41.57 19.7909C41.1943 21.1307 40.7376 22.3626 40.2021 23.4882C39.6656 24.6132 39.1159 25.6179 38.5527 26.5024C37.9895 27.3862 37.439 28.1497 36.9033 28.7927C36.3676 29.4358 35.9379 29.9452 35.6162 30.3196C35.2945 30.6412 35.0532 30.7491 34.8922 30.6412C34.7853 30.6412 34.6785 30.5886 34.5703 30.4804C34.3568 30.2669 34.3028 30.0786 34.4095 29.918C34.4095 29.8111 34.4633 29.7042 34.5703 29.5966C35.161 28.953 36.0324 27.8283 37.1851 26.2205C38.338 24.6132 39.3172 22.5776 40.1216 20.1123C40.1746 20.0596 40.2021 19.9792 40.2021 19.8713H40.1216C39.9066 19.925 39.6516 19.9655 39.3577 19.9919C39.0622 20.0191 38.754 20.0054 38.4325 19.9515C37.8955 19.8985 37.4266 19.7644 37.0243 19.5496C36.6219 19.3361 36.3944 18.9608 36.3404 18.4243C36.3404 17.6205 36.5014 16.9512 36.8234 16.415C37.1453 15.8798 37.5198 15.4505 37.9495 15.1289C38.3782 14.8075 38.8207 14.5802 39.2769 14.4459C39.7321 14.3128 40.0676 14.2184 40.2826 14.1647H40.3628C40.8985 14.0578 41.3145 14.1117 41.6098 14.3253C41.9042 14.5403 42.1052 14.8075 42.213 15.1289C42.3745 15.5045 42.4269 15.9328 42.3745 16.415C42.3745 16.6837 42.3199 17.0853 42.213 17.6205L42.1327 18.1027C43.0984 17.9958 44.0638 17.809 45.029 17.5403C45.9947 17.2728 46.6646 17.0853 47.0404 16.9779H47.2014H47.6036C47.871 17.0856 48.2193 17.2469 48.649 17.4601C49.078 17.6749 49.4662 17.9424 49.8159 18.264C50.1641 18.5854 50.4194 18.9343 50.5801 19.3087C50.7408 19.6843 50.7133 20.0863 50.4996 20.5141C50.1239 21.2109 49.4939 22.2965 48.609 23.7694C47.7241 25.2438 46.9321 26.7572 46.2354 28.3105C46.1277 28.5253 45.9664 28.9006 45.753 29.436C45.323 30.3473 44.9885 31.1235 44.747 31.7663C44.5058 32.4096 44.4378 32.7847 44.5458 32.8918C44.707 32.8918 44.84 32.8654 44.948 32.8119C45.2162 32.7048 45.592 32.4635 46.0747 32.0879C46.5574 31.7138 47.0526 31.2718 47.5631 30.7619C48.0723 30.2532 48.5812 29.731 49.0917 29.195C49.6009 28.6596 49.9891 28.2039 50.2581 27.8285L50.4191 27.6674C50.5264 27.5605 50.6609 27.5346 50.8218 27.5873ZM37.3861 17.0586C37.3861 17.0056 37.5195 16.7774 37.7885 16.3756C38.0563 15.9735 38.4852 15.5854 39.0759 15.2098L40.0414 14.6474L38.915 15.0492C38.593 15.1574 38.3242 15.318 38.1103 15.5315C37.8953 15.6918 37.694 15.8931 37.5068 16.1341C37.318 16.3756 37.1978 16.6568 37.1451 16.9782L37.0648 17.7014L37.3861 17.0586ZM40.2826 19.2282C40.8723 19.2282 41.3688 19.2158 41.771 19.1883C42.1732 19.1621 42.3747 19.1219 42.3747 19.0677V18.8264C42.2664 18.8806 42.133 18.9066 41.9722 18.9066H41.0065C39.4504 18.9066 38.4852 18.6394 38.1103 18.1029C37.9493 17.8355 37.9758 17.4601 38.1908 16.9779L37.9493 16.8975C37.8413 17.0583 37.7608 17.2469 37.708 17.4601C37.654 17.6207 37.6138 17.8093 37.5873 18.0225C37.5595 18.2373 37.5995 18.4246 37.708 18.5854C37.869 18.9066 38.2172 19.0949 38.754 19.1478C39.0217 19.202 39.2769 19.228 39.5184 19.228C39.7599 19.2282 40.0136 19.2282 40.2826 19.2282ZM40.3631 15.5315C40.2551 15.6394 40.1216 15.8002 39.9609 16.0134C39.7999 16.2285 39.6516 16.4695 39.5187 16.7369C39.3842 17.0056 39.3172 17.2596 39.3172 17.5003C39.3172 17.7416 39.3977 17.9162 39.5587 18.0228C39.8804 18.2376 40.2826 18.3177 40.7653 18.2643C41.033 17.2471 41.14 16.5763 41.0876 16.2549C41.0876 16.0414 41.033 15.8407 40.9261 15.6521C40.8178 15.4648 40.6308 15.4246 40.3631 15.5315ZM42.4549 32.731C42.4549 32.3024 42.4814 31.8205 42.5352 31.2838C42.5882 30.856 42.6824 30.3196 42.8167 29.6768C42.9499 29.034 43.1511 28.3105 43.4201 27.5068L43.1789 27.4267C43.1789 27.4806 43.0984 27.6957 42.9377 28.0692C42.7767 28.4448 42.6282 28.9009 42.4952 29.436C42.3607 29.972 42.254 30.5346 42.1732 31.1235C42.093 31.7138 42.1055 32.249 42.2132 32.731H42.4549ZM43.2594 31.0433C43.6881 29.8651 44.1446 28.7126 44.6268 27.5873C45.0558 26.6228 45.472 25.6054 45.8742 24.5328C46.2762 23.4617 46.6911 22.5234 47.1214 21.7198L47.9258 20.1123L47.6843 19.9517C47.5761 20.1123 47.4556 20.3271 47.3224 20.5948C47.1876 20.8632 47.0406 21.1849 46.8799 21.5592C46.5579 22.2023 46.1959 22.9393 45.794 23.7694C45.3915 24.6007 45.0018 25.4573 44.6268 26.3411C44.2511 27.2254 43.9158 28.083 43.6214 28.9128C43.3259 29.7442 43.1246 30.4537 43.0179 31.043H43.2594V31.0433ZM44.3053 34.0973C44.6268 34.0973 44.9753 33.9904 45.3512 33.7754L45.1903 33.5346C45.082 33.5886 45.0015 33.6145 44.9485 33.6145C44.8405 33.6687 44.7075 33.6949 44.5463 33.6949C44.2246 33.6949 44.0098 33.5883 43.9031 33.3735L43.6616 32.8114V33.3735C43.6616 33.4817 43.7021 33.6288 43.7824 33.8156C43.8628 34.0044 44.0361 34.0973 44.3053 34.0973ZM47.7646 21.7201L47.2821 22.5237C47.0131 23.1138 46.7856 23.609 46.5982 24.0111C46.4096 24.4127 46.2084 24.828 45.9947 25.2565C45.7797 25.6861 45.619 26.0602 45.5122 26.3821L45.7535 26.4625C46.1279 25.7665 46.4234 25.1901 46.6384 24.7341C46.8521 24.2796 47.0531 23.8498 47.2419 23.4482C47.4291 23.0461 47.5236 22.7647 47.5236 22.6044L47.7646 21.7201ZM46.7994 17.4601C46.6384 17.4601 46.5306 17.4876 46.4777 17.5406V17.862C46.5306 17.8093 46.6109 17.7815 46.7189 17.7815C47.3083 17.7815 47.8316 17.9159 48.2878 18.1836C48.743 18.4521 49.0517 18.6661 49.2127 18.8264L49.2932 18.9066H49.4539V18.8264C49.4539 18.7198 49.4267 18.6661 49.3734 18.6661L49.2932 18.5857C49.024 18.3177 48.7025 18.063 48.3278 17.822C47.9518 17.581 47.6563 17.4604 47.4426 17.4604H46.7994V17.4601Z" fill="#95AE3C"/>
<path d="M45.7528 37.4726C46.0216 36.7216 46.3155 36.0526 46.6378 35.4635C46.9068 34.8204 47.3352 33.8432 47.9249 32.5299C48.5156 31.217 49.1593 29.7973 49.8558 28.2702C50.5535 26.7426 51.2497 25.216 51.9474 23.6889C52.6438 22.1618 53.2345 20.8632 53.7175 19.7908H50.3382C50.4462 19.3625 50.6072 18.9872 50.8209 18.6658C50.9819 18.3978 51.1832 18.1306 51.4244 17.8616C51.6659 17.5942 52.0004 17.4598 52.4301 17.4598H54.7632C56.2116 14.245 57.324 11.673 58.1022 9.74435C58.8786 7.81542 59.4821 6.39621 59.9121 5.48442C60.1255 5.00219 60.3408 4.4398 60.556 3.79674C60.7695 3.15368 60.9302 2.53835 61.0385 1.94797V1.7874L61.2792 1.62631C61.5482 1.62631 61.7624 1.70698 61.9234 1.86756C62.2454 2.08208 62.6196 2.34979 63.0498 2.67119C63.4785 2.99285 63.8543 3.3682 64.176 3.79648C64.4977 4.22604 64.7254 4.68053 64.8602 5.16251C64.9934 5.64474 64.9267 6.12748 64.659 6.60946C64.551 6.77004 64.458 6.95886 64.3775 7.17211C64.297 7.38688 64.122 7.76224 63.8545 8.2974C63.6395 8.72696 63.1306 9.81204 62.3256 11.5527C61.5212 13.2943 60.6087 15.2637 59.5903 17.4598H62.6479C62.4326 17.8894 62.2179 18.2637 62.0039 18.5851C61.7887 18.8538 61.5482 19.1213 61.2792 19.3887C61.0105 19.6577 60.7162 19.7908 60.3948 19.7908H58.4636C58.4099 19.8445 58.3834 19.8985 58.3834 19.9514C58.2751 20.8632 58.0879 22.2694 57.8205 24.1711C57.5515 26.0736 57.217 28.1094 56.8148 30.2793C56.4126 32.4495 55.9298 34.5664 55.3664 36.6287C54.8034 38.691 54.2 40.3123 53.5563 41.4912C52.9655 42.5621 52.3356 43.3395 51.6659 43.8217C50.9962 44.3042 50.366 44.5979 49.7753 44.706C49.0788 44.8666 48.3811 44.8386 47.6837 44.6256L47.7639 44.706H47.6837L47.5227 44.5452C47.3087 44.4913 46.718 44.2238 45.7528 43.7413C45.2171 43.4197 44.8954 42.9642 44.7871 42.375C44.6804 41.8931 44.6542 41.3833 44.7069 40.8482C44.7609 40.3123 44.8676 39.8033 45.0286 39.3213C45.1896 38.8388 45.3381 38.4233 45.4713 38.0754C45.6053 37.7265 45.6998 37.525 45.7528 37.4726ZM49.4536 32.2487C49.0246 33.2131 48.5961 34.1768 48.1664 35.1423C47.7917 35.9457 47.4297 36.7761 47.0805 37.6331C46.7323 38.4902 46.4505 39.2409 46.2355 39.884L46.4773 39.9641C46.5313 39.9099 46.7183 39.5623 47.0402 38.9195C47.3622 38.2767 47.7114 37.5532 48.0862 36.7496C48.4621 35.946 48.8104 35.1283 49.1318 34.298C49.4538 33.4679 49.6426 32.8116 49.6953 32.3293L49.8563 31.445L49.4536 32.2487ZM51.9476 39.8033C52.4303 38.7849 52.8591 37.6054 53.2348 36.2671C53.6097 34.9273 53.9452 33.6145 54.2405 32.3291C54.5347 31.043 54.7759 29.8513 54.9644 28.7519C55.1516 27.6544 55.2989 26.783 55.4071 26.14C54.9771 26.9976 54.6027 27.7752 54.2807 28.4707C53.959 29.1677 53.6635 29.7843 53.3958 30.3192C53.1268 30.9094 52.8855 31.4718 52.6716 32.0072C52.0279 33.4541 51.4109 34.8204 50.8209 36.1063C50.3382 37.1774 49.8558 38.2625 49.3728 39.3615C48.8901 40.4588 48.5684 41.3027 48.4074 41.8931V41.9732C48.3549 42.0259 48.3269 42.1063 48.3269 42.2142C48.2744 42.3748 48.2744 42.5079 48.3269 42.6158C48.3269 42.9374 48.4879 43.0983 48.8098 43.0983C48.9706 43.1512 49.1313 43.1512 49.2926 43.0983C49.7755 43.0443 50.2315 42.7227 50.6605 42.1338C51.0889 41.5439 51.5176 40.768 51.9476 39.8033ZM48.4076 37.553C48.3006 37.6599 48.3271 37.7138 48.4881 37.7138C48.5421 37.7138 48.5961 37.6863 48.6489 37.6331C48.6489 37.4184 48.7029 37.1512 48.8098 36.8295L54.12 24.2113C54.2267 24.0505 54.321 23.9039 54.4015 23.7693C54.4817 23.6364 54.5482 23.5156 54.6027 23.4079L54.7634 23.086C54.7634 22.9796 54.7359 22.9252 54.6832 22.9252H54.5222C53.5565 24.8017 52.7383 26.4497 52.0684 27.8679C51.3972 29.2889 50.7145 30.8559 50.017 32.5701C49.3203 34.2853 48.7836 35.9457 48.4076 37.553ZM52.4301 41.5719L52.1084 41.8933C51.8394 42.1608 51.4649 42.4959 50.9819 42.8977C50.4992 43.2996 50.1248 43.5006 49.8558 43.5006V43.822C49.9095 43.7678 50.258 43.6474 50.9017 43.4606C51.5451 43.2718 52.0004 42.8036 52.2694 42.0541L52.4301 41.5719ZM51.9476 18.8261C52.0544 18.8261 52.4028 18.8401 52.9936 18.8663C53.583 18.8938 54.1724 18.9062 54.7634 18.9062C55.6211 18.9062 56.2781 18.8938 56.7348 18.8663C57.1897 18.8398 57.5255 18.8134 57.7405 18.7861C57.9542 18.7599 58.0747 18.7332 58.1027 18.7057C58.1289 18.6795 58.1429 18.6393 58.1429 18.5854C58.1429 18.479 57.9277 18.3981 57.499 18.3441C57.2302 18.2912 56.936 18.264 56.614 18.264C56.2923 18.264 55.9706 18.264 55.6486 18.264C55.1119 18.264 54.6292 18.2774 54.2005 18.3039C53.7705 18.3314 53.396 18.3719 53.074 18.4245C52.6983 18.479 52.3226 18.5324 51.9479 18.5854L51.2237 18.6658L51.9476 18.8261ZM51.7866 27.3454L52.2694 26.3011C52.2694 26.2481 52.3901 26.0071 52.6313 25.5776C52.8728 25.1493 53.1268 24.6406 53.3958 24.0505C53.6635 23.4616 53.9187 22.8585 54.16 22.2422C54.4015 21.6266 54.5482 21.1571 54.6027 20.8354L54.6829 20.1122L54.3612 20.7553C54.3612 20.8095 54.2529 21.0505 54.0392 21.4787C53.8245 21.908 53.597 22.403 53.3553 22.9649C53.114 23.5278 52.8588 24.1182 52.5911 24.7335C52.3223 25.3498 52.1346 25.8461 52.0279 26.2204L51.7866 27.3454ZM57.2572 16.4953C57.2572 16.6032 57.2837 16.6562 57.338 16.6562C57.3907 16.6562 57.4447 16.6297 57.4987 16.5758C57.6055 16.1475 57.6862 15.8523 57.7402 15.6912L61.6824 6.28806C61.7889 6.12748 61.8837 5.9664 61.9642 5.80557C62.0442 5.64449 62.1109 5.51191 62.1649 5.40375C62.2179 5.24293 62.2719 5.1363 62.3256 5.0821C62.3256 4.97547 62.2986 4.92178 62.2456 4.92178L62.0844 5.00194C61.3869 6.23487 60.7432 7.52125 60.1538 8.85979C59.6171 9.98509 59.0674 11.231 58.5044 12.5973C57.9412 13.9638 57.5252 15.2637 57.2572 16.4953ZM61.9237 7.33319L61.6017 8.05616C61.0652 9.18145 60.6222 10.1462 60.2738 10.9498C59.9248 11.7534 59.5628 12.5846 59.1881 13.4414C58.8124 14.299 58.5447 15.0486 58.3837 15.6915L58.6251 15.8525C58.6251 15.7996 58.7859 15.4507 59.1076 14.8077C59.4296 14.1649 59.7776 13.4289 60.1535 12.5973C60.528 11.7672 60.8772 10.9373 61.199 10.1057C61.5209 9.27561 61.7349 8.6188 61.8427 8.13657L61.9237 7.33319ZM62.3256 3.55549L63.2111 4.19881L63.2913 4.27897C63.4523 4.49375 63.545 4.89557 63.5728 5.48442C63.599 6.07481 63.6128 6.52956 63.6128 6.8507L63.5323 7.41335L63.8545 6.8507C64.229 6.10102 64.2967 5.48442 64.0553 5.00219C63.8143 4.51996 63.613 4.22604 63.4523 4.1184L63.2913 3.95731L62.3256 3.55549Z" fill="#2D2C6E"/>
<path d="M60.3939 25.0151C61.0899 23.8901 61.8683 22.8185 62.727 21.8003C63.5839 20.7832 64.4164 19.9251 65.2211 19.2281C66.0255 18.5326 66.7897 18.0364 67.5139 17.7414C68.2379 17.4477 68.8413 17.4602 69.3238 17.7816C69.8063 18.103 70.2495 18.412 70.6517 18.7059C71.0537 19.0011 71.3886 19.2561 71.6571 19.4693C71.9791 19.6841 72.2731 19.8986 72.5421 20.1121C72.6491 19.7907 72.7833 19.4968 72.9443 19.2278C73.051 18.9606 73.1453 18.6926 73.2258 18.4242C73.3063 18.1567 73.3468 17.9155 73.3468 17.7007C73.3468 17.648 73.3733 17.5941 73.427 17.5401L73.5877 17.3795C73.7487 17.3795 73.9625 17.4597 74.2314 17.6205C74.5532 17.7814 74.9014 18.0224 75.2769 18.344C75.6516 18.6659 76.0016 19.0273 76.323 19.4291C76.645 19.8312 76.8582 20.2467 76.9665 20.675C77.073 21.1046 76.9927 21.5593 76.7253 22.0413C76.4035 22.6314 75.9336 23.5422 75.3174 24.7739C74.7002 26.0073 74.0969 27.2527 73.5072 28.5116C72.9168 29.771 72.4336 30.8963 72.0591 31.887C71.6831 32.8792 71.5764 33.4281 71.7371 33.535C71.8438 33.6431 72.1396 33.5225 72.6221 33.1731C73.105 32.8255 73.6545 32.3695 74.2714 31.8068C74.8874 31.2447 75.4781 30.6551 76.0416 30.039C76.6048 29.4239 77.047 28.9009 77.3687 28.4716C77.3687 28.4187 77.4217 28.3648 77.53 28.3108C77.6907 28.15 77.8517 28.1238 78.0127 28.2307C78.1194 28.2846 78.2264 28.4314 78.3349 28.6727C78.4416 28.9134 78.2539 29.3295 77.7714 29.9186C76.8585 31.0439 75.9473 32.0224 75.0356 32.8522C74.1237 33.6833 73.534 34.2322 73.2663 34.4994C72.5146 35.0348 71.8989 35.3435 71.4154 35.4239C70.9327 35.5041 70.5572 35.5168 70.2892 35.4644C69.3238 35.3033 68.7201 34.8743 68.4791 34.1775C68.2379 33.4825 68.1704 32.6786 68.2784 31.7666C68.3851 30.8566 68.6401 29.8919 69.0423 28.8732C69.4445 27.8563 69.8065 26.972 70.1285 26.2211C69.5375 26.9181 68.8538 27.7082 68.0771 28.5923C67.2989 29.4761 66.5207 30.3339 65.7441 31.164C64.9661 31.9954 64.2679 32.7453 63.6522 33.4143C63.0353 34.0849 62.6468 34.5266 62.4855 34.7402C62.1636 35.1147 61.5471 35.1689 60.6352 34.9012C59.7237 34.6338 59.026 34.2058 58.5433 33.6149C58.0606 33.08 57.9274 32.0353 58.1409 30.4807C58.3561 28.9272 59.1068 27.1051 60.3939 25.0151ZM64.4164 21.8805C64.3621 21.9344 64.0944 22.2421 63.6117 22.8047C63.1292 23.3674 62.6063 24.0906 62.0433 24.9746C61.4801 25.8584 60.9566 26.8237 60.4747 27.8678C59.9917 28.9127 59.724 29.9178 59.67 30.882V31.7661L59.9112 30.9625C60.3412 29.8377 60.7557 28.8602 61.1581 28.0294C61.5609 27.1993 62.0561 26.2613 62.647 25.2161C63.2362 24.1715 63.9062 23.1134 64.6584 22.041L64.4164 21.8805ZM61.3591 34.2577C61.7343 34.2577 62.2165 33.9365 62.8078 33.2935L62.5663 33.1326C62.4583 33.2408 62.3248 33.3474 62.1638 33.4543C61.8421 33.6688 61.5474 33.7754 61.2784 33.7754C61.1179 33.7754 60.9837 33.7233 60.8764 33.6146L60.4747 33.3739L60.6354 33.7754C60.6354 33.8299 60.6894 33.924 60.7962 34.0569C60.9026 34.1912 61.0901 34.2577 61.3591 34.2577ZM65.0604 22.1215C65.0604 22.1757 64.9394 22.363 64.6984 22.6844C64.4572 23.0058 64.2017 23.3951 63.9337 23.8496C63.6647 24.3059 63.3705 24.7879 63.0488 25.2965C62.727 25.8068 62.4855 26.2483 62.3246 26.6229L61.9226 27.6672L62.566 26.7832C62.566 26.7303 62.6868 26.5295 62.928 26.1801C63.1692 25.8325 63.4512 25.4169 63.7727 24.9344C64.0944 24.4522 64.4024 23.9705 64.6981 23.488C64.9921 23.0055 65.1931 22.6037 65.3013 22.2823L65.5426 21.4786L65.0604 22.1215ZM63.29 31.1233C63.773 30.8019 64.4831 30.1189 65.4223 29.0735C66.36 28.0291 67.2852 26.9443 68.1976 25.819C69.2703 24.4802 70.4505 23.0597 71.7376 21.5591C70.9859 21.0768 70.2495 20.9964 69.5248 21.3178C68.8006 21.6395 68.1974 22.0952 67.7149 22.6841C67.2322 23.2742 66.494 24.2652 65.5023 25.6576C64.5096 27.0519 63.6644 28.4986 62.968 29.9982C62.699 30.4805 62.606 30.8156 62.6868 31.0029C62.767 31.1912 62.8605 31.2839 62.968 31.2839C63.075 31.2839 63.1552 31.2577 63.2095 31.204C63.2627 31.2037 63.29 31.1772 63.29 31.1233ZM68.2786 18.344C68.0094 18.344 67.7557 18.4117 67.5142 18.5453C67.273 18.6797 67.044 18.8 66.8297 18.9067C66.615 19.1217 66.3738 19.3087 66.106 19.4693L66.267 19.7103C66.8567 19.2823 67.4739 19.0675 68.1174 19.0675C68.4924 19.0675 68.8278 19.1214 69.1231 19.2281C69.417 19.3362 69.6723 19.4428 69.8873 19.5497C69.9942 19.6579 70.1012 19.7103 70.2092 19.7103L70.2895 19.791L70.4505 19.6301C70.397 19.6301 70.3425 19.6037 70.2895 19.55C70.1812 19.4431 70.0745 19.3629 69.9675 19.3087C69.8592 19.2021 69.6985 19.0817 69.4848 18.9471C69.2701 18.814 69.0548 18.6662 68.8413 18.5051C68.6263 18.398 68.4394 18.344 68.2786 18.344ZM69.726 32.0878C69.8873 31.6055 70.0745 31.1233 70.2895 30.6411C70.4505 30.2128 70.6115 29.757 70.7725 29.275C70.9329 28.7925 71.0662 28.3375 71.1744 27.9082L71.4154 26.8639L70.9327 27.9082C70.7722 28.2841 70.5167 28.9129 70.169 29.7975C69.8193 30.6815 69.5915 31.4187 69.4845 32.0076L69.404 32.8117L69.726 32.0878ZM72.1404 33.8559C72.0861 33.9098 72.0056 33.9637 71.8991 34.0167C71.6839 34.1248 71.4964 34.177 71.3354 34.177C71.0137 34.177 70.7727 33.9368 70.6115 33.4543L70.4505 32.7308L70.37 33.4543V33.8559C70.37 34.1248 70.4505 34.3383 70.6115 34.4987C70.7182 34.6066 70.8794 34.66 71.0944 34.66C71.3619 34.66 71.7644 34.4462 72.3014 34.0167L72.2209 33.9368L72.3014 34.0167L72.2209 33.9368L72.1404 33.8559ZM73.588 23.5684C73.158 24.3194 72.7836 25.0953 72.4618 25.8989C72.1401 26.5959 71.8306 27.3596 71.5364 28.1897C71.2412 29.0213 70.9594 29.8377 70.6922 30.6411L70.9329 30.7215C71.3082 29.9178 71.6436 29.1946 71.9384 28.551C72.2326 27.9082 72.5421 27.1725 72.8638 26.3409C73.186 25.5111 73.5075 24.613 73.8292 23.6486L73.588 23.5684Z" fill="#2D2C6E"/>
<path d="M92.6542 27.5873C92.7609 27.6412 92.8822 27.788 93.0159 28.0293C93.1494 28.2703 92.9764 28.6856 92.493 29.2752C91.581 30.3997 90.6693 31.3784 89.7584 32.2083C88.8455 33.0399 88.256 33.5886 87.9878 33.856C87.2363 34.3922 86.6064 34.6999 86.0974 34.7803C85.5869 34.8607 85.1985 34.8737 84.931 34.8207C84.4478 34.8207 84.0581 34.6871 83.7641 34.4187C83.4686 34.1512 83.2536 33.8033 83.1211 33.374C82.9861 32.946 82.9197 32.504 82.9197 32.048C82.9197 31.5932 82.9459 31.1515 82.9999 30.7219C82.9999 30.615 83.0264 30.4539 83.0801 30.2394C83.1334 30.0259 83.1871 29.8111 83.2409 29.5969C83.2939 29.3831 83.3481 29.1683 83.4021 28.9533V29.034C83.6698 28.0171 84.0456 26.8778 84.529 25.6181C85.0113 24.36 85.6812 22.9255 86.5401 21.3182C86.5929 21.1047 86.7009 20.89 86.8616 20.6752C86.9689 20.4619 87.1036 20.2329 87.2643 19.9922C87.4251 19.7507 87.5858 19.4972 87.7473 19.2282C87.2103 19.3364 86.7011 19.4168 86.2184 19.4695C85.7354 19.5234 85.2792 19.5776 84.8508 19.6301C84.5815 19.6843 84.3405 19.7102 84.1263 19.7102C83.9113 19.7102 83.6701 19.7382 83.4024 19.7909C83.0264 21.1307 82.5702 22.3626 82.0345 23.4882C81.4983 24.6132 80.9483 25.6179 80.3853 26.5024C79.8224 27.3862 79.2717 28.1497 78.736 28.7927C78.2003 29.4358 77.7708 29.9452 77.4488 30.3196C77.1268 30.6412 76.8856 30.7491 76.7246 30.6412C76.6179 30.6412 76.5109 30.5886 76.4024 30.4804C76.1892 30.2669 76.1352 30.0786 76.2416 29.918C76.2416 29.8111 76.2959 29.7042 76.4024 29.5966C76.9933 28.953 77.8648 27.8283 79.0169 26.2205C80.1698 24.6132 81.1495 22.5776 81.9537 20.1123C82.007 20.0596 82.034 19.9792 82.034 19.8713H81.9537C81.7392 19.925 81.4837 19.9655 81.1898 19.9919C80.8943 20.0191 80.5861 20.0054 80.2646 19.9515C79.7279 19.8985 79.2589 19.7644 78.8562 19.5496C78.4547 19.3361 78.2265 18.9608 78.1727 18.4243C78.1727 17.6205 78.3337 16.9512 78.6552 16.415C78.9772 15.8798 79.3522 15.4505 79.7819 15.1289C80.2103 14.8075 80.6531 14.5802 81.1093 14.4459C81.5642 14.3128 81.9 14.2184 82.115 14.1647H82.1952C82.7309 14.0578 83.1466 14.1117 83.4424 14.3253C83.7363 14.5403 83.9373 14.8075 84.0456 15.1289C84.2068 15.5045 84.2593 15.9328 84.2068 16.415C84.2068 16.6837 84.1523 17.0853 84.0456 17.6205L83.9653 18.1027C84.931 17.9958 85.8964 17.809 86.8614 17.5403C87.827 17.2728 88.4972 17.0853 88.8727 16.9779H89.0337H89.4362C89.7037 17.0856 90.0519 17.2469 90.4816 17.4601C90.9106 17.6749 91.2985 17.9424 91.6485 18.264C91.9962 18.5854 92.2515 18.9343 92.4125 19.3087C92.5737 19.6843 92.5459 20.0863 92.3322 20.5141C91.9562 21.2109 91.3271 22.2965 90.4416 23.7694C89.5567 25.2438 88.765 26.7572 88.068 28.3105C87.9605 28.5253 87.7993 28.9006 87.5853 29.436C87.1553 30.3473 86.8209 31.1235 86.5799 31.7663C86.3384 32.4096 86.2706 32.7847 86.3786 32.8918C86.5399 32.8918 86.6726 32.8654 86.7806 32.8119C87.0494 32.7048 87.4246 32.4635 87.907 32.0879C88.39 31.7138 88.8852 31.2718 89.3957 30.7619C89.9049 30.2532 90.4143 29.731 90.9246 29.195C91.4333 28.6596 91.8217 28.2039 92.091 27.8285L92.2517 27.6674C92.3587 27.5605 92.493 27.5346 92.6542 27.5873ZM79.2187 17.0586C79.2187 17.0056 79.3521 16.7774 79.6206 16.3756C79.8886 15.9735 80.3173 15.5854 80.908 15.2098L81.8737 14.6474L80.7471 15.0492C80.4253 15.1574 80.1563 15.318 79.9426 15.5315C79.7279 15.6918 79.5264 15.8931 79.3394 16.1341C79.1509 16.3756 79.0297 16.6568 78.9772 16.9782L78.8972 17.7014L79.2187 17.0586ZM82.115 19.2282C82.7044 19.2282 83.2011 19.2158 83.6031 19.1883C84.0053 19.1621 84.2068 19.1219 84.2068 19.0677V18.8264C84.0983 18.8806 83.9653 18.9066 83.8043 18.9066H82.8389C81.2825 18.9066 80.3176 18.6394 79.9426 18.1029C79.7819 17.8355 79.8086 17.4601 80.0226 16.9779L79.7819 16.8975C79.6736 17.0583 79.5934 17.2469 79.5404 17.4601C79.4867 17.6207 79.4461 17.8093 79.4197 18.0225C79.3921 18.2373 79.4324 18.4246 79.5404 18.5854C79.7014 18.9066 80.0496 19.0949 80.5861 19.1478C80.8538 19.202 81.1093 19.228 81.3508 19.228C81.5917 19.2282 81.8457 19.2282 82.115 19.2282ZM82.1952 15.5315C82.0872 15.6394 81.9537 15.8002 81.793 16.0134C81.6322 16.2285 81.4837 16.4695 81.3508 16.7369C81.216 17.0056 81.1495 17.2596 81.1495 17.5003C81.1495 17.7416 81.2298 17.9162 81.391 18.0228C81.713 18.2376 82.115 18.3177 82.5974 18.2643C82.8657 17.2471 82.9721 16.5763 82.9194 16.2549C82.9194 16.0414 82.8657 15.8407 82.7584 15.6521C82.6499 15.4648 82.4632 15.4246 82.1952 15.5315ZM84.2868 32.731C84.2868 32.3024 84.3133 31.8205 84.3673 31.2838C84.42 30.856 84.5143 30.3196 84.6488 29.6768C84.782 29.034 84.9832 28.3105 85.252 27.5068L85.0107 27.4267C85.0107 27.4806 84.9308 27.6957 84.77 28.0692C84.609 28.4448 84.4605 28.9009 84.3276 29.436C84.1931 29.972 84.0861 30.5346 84.0051 31.1235C83.9248 31.7138 83.9371 32.249 84.0453 32.731H84.2868ZM85.0915 31.0433C85.5205 29.8651 85.9767 28.7126 86.4589 27.5873C86.8879 26.6228 87.3041 25.6054 87.7063 24.5328C88.1085 23.4617 88.5232 22.5234 88.9532 21.7198L89.7582 20.1123L89.5164 19.9517C89.4082 20.1123 89.2874 20.3271 89.1544 20.5948C89.0199 20.8632 88.8727 21.1849 88.7117 21.5592C88.39 22.2023 88.028 22.9393 87.6258 23.7694C87.2233 24.6007 86.8338 25.4573 86.4589 26.3411C86.0832 27.2254 85.7477 28.083 85.4537 28.9128C85.1582 29.7442 84.957 30.4537 84.8503 31.043H85.0915V31.0433ZM86.1377 34.0973C86.4591 34.0973 86.8076 33.9904 87.1833 33.7754L87.0224 33.5346C86.9138 33.5886 86.8338 33.6145 86.7806 33.6145C86.6726 33.6687 86.5399 33.6949 86.3786 33.6949C86.0569 33.6949 85.8424 33.5883 85.7352 33.3735L85.494 32.8114V33.3735C85.494 33.4817 85.5345 33.6288 85.615 33.8156C85.6952 34.0044 85.8682 34.0973 86.1377 34.0973ZM89.5969 21.7201L89.1139 22.5237C88.8452 23.1138 88.618 23.609 88.4303 24.0111C88.2418 24.4127 88.0408 24.828 87.8268 25.2565C87.6121 25.6861 87.4511 26.0602 87.3441 26.3821L87.5851 26.4625C87.9603 25.7665 88.2555 25.1901 88.4702 24.7341C88.6842 24.2796 88.8849 23.8498 89.0737 23.4482C89.2612 23.0461 89.3554 22.7647 89.3554 22.6044L89.5969 21.7201ZM88.6315 17.4601C88.4705 17.4601 88.3627 17.4876 88.31 17.5406V17.862C88.3627 17.8093 88.443 17.7815 88.5507 17.7815C89.1404 17.7815 89.6637 17.9159 90.1196 18.1836C90.5753 18.4521 90.8841 18.6661 91.0448 18.8264L91.1251 18.9066H91.286V18.8264C91.286 18.7198 91.2585 18.6661 91.2058 18.6661L91.1253 18.5857C90.8566 18.3177 90.5348 18.063 90.1604 17.822C89.7839 17.581 89.4887 17.4604 89.2752 17.4604H88.6315V17.4601Z" fill="#2D2C6E"/>
<path d="M110.997 34.6601C110.245 34.2855 109.83 33.6686 109.75 32.8115C109.669 31.9542 109.763 31.0165 110.032 29.9981C110.245 28.927 110.635 27.6408 111.198 26.1402C111.761 24.6406 112.578 22.8989 113.652 20.9158C112.417 22.2559 111.184 23.7026 109.951 25.2559C108.877 26.596 107.738 28.1093 106.531 29.7973C105.325 31.485 104.211 33.2131 103.193 34.9812C102.389 34.9273 101.691 34.7397 101.101 34.4183C100.618 34.1509 100.243 33.6824 99.9753 33.0123C99.7052 32.3425 99.7862 31.3918 100.216 30.1589C100.269 29.9981 100.349 29.7708 100.457 29.4754C100.564 29.1817 100.685 28.846 100.819 28.4709C100.952 28.0969 101.087 27.7612 101.222 27.4663C101.354 27.1726 101.449 26.9441 101.503 26.783C102.093 25.0691 103.004 23.1132 104.238 20.9158C103.004 22.2559 101.771 23.7026 100.537 25.2559C99.4643 26.596 98.3251 28.1093 97.1184 29.7973C95.9118 31.485 94.7978 33.2131 93.7794 34.9812C92.9755 34.9273 92.2786 34.7397 91.6876 34.4183C91.2051 34.1509 90.8307 33.6824 90.5614 33.0123C90.2937 32.3425 90.3739 31.3918 90.8032 30.1589C91.2329 28.6056 91.9163 27.012 92.8542 25.3768C93.7927 23.7428 94.5569 22.1755 95.1473 20.6748C95.4151 19.9791 95.67 19.3363 95.9118 18.7459C96.1533 18.1568 96.3265 17.514 96.435 16.8167V16.7363V16.6561C96.435 16.5493 96.5152 16.4953 96.676 16.4953C96.7287 16.4953 96.944 16.5493 97.3192 16.6561C97.4799 16.8167 97.6134 16.9246 97.7219 16.9775C98.0436 17.1921 98.3778 17.4598 98.7271 17.7812C99.0758 18.1026 99.3835 18.438 99.6525 18.7861C99.9205 19.1352 100.107 19.5231 100.215 19.9513C100.323 20.3809 100.296 20.8092 100.135 21.2372C99.5448 22.4707 98.8748 23.6362 98.1239 24.7335C97.3724 25.832 96.5415 26.9975 95.6303 28.2297C96.9704 26.5156 98.3106 24.9342 99.6525 23.4878C100.779 22.2556 101.958 21.0097 103.193 19.7501C104.426 18.4917 105.525 17.5399 106.491 16.8969C107.295 17.2725 107.992 17.6478 108.583 18.0219C109.066 18.3436 109.44 18.7327 109.709 19.1874C109.977 19.6434 109.977 20.1117 109.709 20.5941C109.387 21.1843 108.877 22.0683 108.181 23.2463C107.482 24.4255 106.813 25.6572 106.169 26.9436C106.704 26.3005 107.376 25.5106 108.181 24.5724C108.985 23.6356 109.843 22.6712 110.755 21.6792C111.666 20.6883 112.577 19.764 113.49 18.9062C114.401 18.0499 115.232 17.3794 115.984 16.8969C116.735 17.2725 117.405 17.6478 117.995 18.0219C118.478 18.3436 118.867 18.7327 119.163 19.1874C119.456 19.6434 119.471 20.1117 119.202 20.5941C118.772 21.2909 118.116 22.3757 117.231 23.8489C116.347 25.3236 115.582 26.8367 114.939 28.39C114.723 28.7119 114.562 29.0873 114.456 29.5153C114.026 30.4271 113.691 31.2033 113.45 31.8461C113.209 32.4894 113.141 32.8645 113.249 32.9716C113.356 32.9716 113.463 32.9451 113.571 32.8912C113.838 32.7841 114.227 32.5433 114.737 32.1675C115.247 31.7934 115.756 31.3514 116.266 30.8416C116.775 30.333 117.272 29.8105 117.754 29.2746C118.237 28.7392 118.612 28.2834 118.881 27.9078C118.881 27.8554 118.934 27.8014 119.042 27.747C119.203 27.5866 119.364 27.5599 119.524 27.6668C119.631 27.7213 119.738 27.8676 119.847 28.1091C119.953 28.3498 119.766 28.7659 119.283 29.355C118.371 30.48 117.459 31.4582 116.548 32.2883C115.636 33.1197 115.046 33.6684 114.778 33.9363C114.026 34.472 113.411 34.7797 112.927 34.8603C112.444 34.9405 112.069 34.9535 111.801 34.9005H111.721L110.997 34.6601ZM93.8599 34.4186L92.9752 34.0167C92.8137 33.9638 92.653 33.8559 92.4923 33.6951C92.1176 33.3737 91.8223 32.9999 91.6071 32.57L91.2854 31.8466L91.3656 32.57C91.3656 32.6243 91.4334 32.8917 91.5668 33.3737C91.7013 33.8559 92.1441 34.1511 92.8942 34.2577L93.8599 34.4186ZM92.3313 32.8917L92.6533 32.168C92.6533 32.1158 92.8543 31.6331 93.2562 30.7215C93.6589 29.811 93.9407 28.9005 94.1017 27.9887L94.3426 26.9443L93.8597 27.9083V27.9887C93.6987 28.3104 93.4442 28.9272 93.0955 29.8377C92.7473 30.7493 92.5195 31.499 92.4115 32.0878L92.3313 32.8917ZM96.5152 23.6489C96.0853 24.3456 95.7106 25.0956 95.3886 25.8992C95.0666 26.5962 94.7576 27.3599 94.4631 28.19C94.1682 29.0216 93.8864 29.838 93.6189 30.6414L93.8599 30.7218C94.1819 30.0787 94.5036 29.383 94.8254 28.632C95.0933 27.989 95.401 27.2528 95.7513 26.4217C96.099 25.5913 96.435 24.6938 96.7567 23.7293L96.5152 23.6489ZM96.7567 21.3179C96.5415 21.8541 96.3543 22.3098 96.1933 22.6842C96.0323 23.0598 95.871 23.4478 95.7103 23.8494C95.5493 24.2512 95.3883 24.6131 95.2276 24.9345L95.3883 25.0149C95.7103 24.48 95.9643 24.024 96.153 23.6486C96.3397 23.2743 96.515 22.8852 96.6757 22.4834C96.8365 22.0813 96.9437 21.7197 96.9977 21.3983L97.0782 20.5947L96.7567 21.3179ZM98.4461 26.3013L97.6417 27.1853C97.4799 27.3459 97.3057 27.5472 97.1184 27.7882C96.9299 28.0294 96.7567 28.2842 96.5955 28.5514C96.3805 28.8203 96.1652 29.0881 95.9518 29.3555L95.6303 29.7573L96.1125 29.5161C96.5417 29.3026 96.93 28.9008 97.2794 28.3106C97.6274 27.722 97.8286 27.4001 97.8829 27.3459L98.4461 26.3013ZM97.7219 18.8263L98.2849 19.2281C98.9288 19.6579 99.2228 20.1399 99.1703 20.6751C99.116 21.211 99.0898 21.5064 99.0898 21.5594L99.331 21.6398C99.6528 20.9967 99.7052 20.4341 99.492 19.9518C99.3838 19.5778 99.1828 19.3365 98.8881 19.2284C98.5931 19.122 98.4186 19.0678 98.3656 19.0678L97.7219 18.8263ZM103.433 34.4186L102.549 34.0167C102.388 33.9638 102.227 33.8559 102.066 33.6951C101.69 33.3737 101.395 32.9999 101.181 32.57L100.939 31.8466V32.57C100.939 32.6243 101.006 32.8917 101.141 33.3737C101.274 33.8559 101.717 34.1511 102.469 34.2577L103.433 34.4186ZM101.825 32.2489L102.227 31.5252C102.389 31.0971 102.576 30.6411 102.791 30.1591C102.951 29.7309 103.112 29.2751 103.273 28.7929C103.434 28.3104 103.567 27.8284 103.675 27.3457L103.836 26.3013L103.434 27.2655L103.354 27.4266C103.3 27.5874 103.206 27.8284 103.073 28.1498C102.938 28.4715 102.791 28.8331 102.63 29.2354C102.469 29.637 102.334 30.0388 102.228 30.4406C102.12 30.8424 102.039 31.1776 101.986 31.4453L101.825 32.2489ZM106.089 23.0056C105.659 23.8637 105.297 24.6408 105.003 25.3363C104.707 26.0333 104.385 26.7973 104.037 27.6274C103.688 28.4587 103.406 29.2751 103.193 30.0785L103.433 30.1589C103.756 29.5158 104.078 28.8198 104.399 28.0689C104.667 27.4263 104.963 26.6761 105.285 25.8188C105.607 24.962 105.928 24.0504 106.25 23.086L106.089 23.0056ZM106.25 20.7555C106.089 21.185 105.9 21.6133 105.687 22.0414C105.526 22.417 105.365 22.805 105.204 23.2066C105.043 23.6089 104.882 23.9708 104.721 24.2922L104.962 24.4528C105.284 23.9179 105.538 23.4618 105.727 23.0865C105.914 22.7119 106.089 22.3231 106.25 21.921C106.411 21.5192 106.491 21.1576 106.491 20.8359L106.571 19.9518L106.25 20.7555ZM113.893 19.4694L113.088 20.2733C112.927 20.4338 112.753 20.6349 112.565 20.8761C112.377 21.1171 112.176 21.3459 111.962 21.5594C111.747 21.8281 111.532 22.0956 111.318 22.363L110.916 22.7648L111.399 22.5236C111.828 22.363 112.244 21.9889 112.646 21.3988C113.049 20.8099 113.276 20.4883 113.33 20.4341L113.893 19.4694ZM111.158 32.168L111.48 31.445C111.641 30.9625 111.828 30.4803 112.043 29.9981C112.203 29.5695 112.364 29.1138 112.525 28.6318C112.686 28.1493 112.82 27.6951 112.928 27.2652L113.088 26.2206L112.686 27.1851L112.606 27.2652C112.498 27.6411 112.27 28.2702 111.922 29.1542C111.573 30.0385 111.345 30.7752 111.238 31.3646L111.158 32.168ZM113.169 33.6147L113.249 33.6951L113.169 33.6147C113.115 33.6689 113.035 33.7233 112.927 33.7755C112.713 33.8842 112.525 33.9368 112.364 33.9368C112.042 33.9368 111.801 33.6953 111.641 33.2134L111.479 32.4901L111.399 33.2134V33.6147C111.399 33.8842 111.479 34.0972 111.641 34.2577C111.747 34.3656 111.881 34.4186 112.042 34.4186C112.364 34.4186 112.793 34.2053 113.33 33.7755L113.25 33.6953L113.33 33.7755L113.169 33.6147ZM115.341 22.9254C114.911 23.783 114.549 24.5469 114.255 25.2162C113.959 25.887 113.638 26.6364 113.29 27.4665C112.94 28.2982 112.659 29.1143 112.444 29.9182L112.686 30.0787C113.061 29.2753 113.396 28.5514 113.692 27.9086C113.986 27.2657 114.295 26.5298 114.617 25.6982C114.939 24.8683 115.261 23.9708 115.582 23.0058L115.341 22.9254ZM115.502 20.6751C115.341 21.1046 115.152 21.5329 114.939 21.9609C114.778 22.3363 114.617 22.7244 114.456 23.1259C114.295 23.528 114.134 23.8901 113.973 24.2115L114.214 24.2919C114.268 24.2393 114.523 23.7975 114.979 22.9651C115.434 22.1355 115.689 21.3721 115.743 20.6748L115.824 19.8712L115.502 20.6751ZM116.468 18.1031L117.111 18.5856C117.433 18.8001 117.646 19.0273 117.754 19.2688C117.861 19.5096 117.941 19.7648 117.995 20.0323C117.995 20.3007 117.968 20.5684 117.915 20.8359L118.157 20.9967C118.479 20.247 118.531 19.6582 118.317 19.2284C118.157 18.907 117.941 18.68 117.674 18.5456C117.405 18.412 117.244 18.3443 117.191 18.3443L116.468 18.1031Z" fill="#2D2C6E"/>
</svg>
